<svg xmlns="http://www.w3.org/2000/svg" xmlns:xlink="http://www.w3.org/1999/xlink" width="500" zoomAndPan="magnify" viewBox="0 0 375 374.999991" height="500" preserveAspectRatio="xMidYMid meet" version="1.0"><defs><clipPath id="e5b3a2c29c"><path d="M 187.871094 120.429688 L 286.121094 120.429688 L 286.121094 263.679688 L 187.871094 263.679688 Z M 187.871094 120.429688 " clip-rule="nonzero"/></clipPath><clipPath id="37a8c68235"><path d="M 67.121094 120.429688 L 217.121094 120.429688 L 217.121094 263.679688 L 67.121094 263.679688 Z M 67.121094 120.429688 " clip-rule="nonzero"/></clipPath><clipPath id="c6f289630e"><path d="M 202.066406 120.429688 L 217.300781 120.429688 L 217.300781 263.984375 L 202.066406 263.984375 Z M 202.066406 120.429688 " clip-rule="nonzero"/></clipPath><clipPath id="4978c2de0a"><path d="M 205.066406 120.429688 L 214.121094 120.429688 C 215.777344 120.429688 217.121094 121.773438 217.121094 123.429688 L 217.121094 260.867188 C 217.121094 262.523438 215.777344 263.867188 214.121094 263.867188 L 205.066406 263.867188 C 203.410156 263.867188 202.066406 262.523438 202.066406 260.867188 L 202.066406 123.429688 C 202.066406 121.773438 203.410156 120.429688 205.066406 120.429688 " clip-rule="nonzero"/></clipPath><clipPath id="36d77ba9b9"><path d="M 79 79.1875 L 88 79.1875 L 88 88 L 79 88 Z M 79 79.1875 " clip-rule="nonzero"/></clipPath><clipPath id="8e32047631"><path d="M 101 81 L 109.3125 81 L 109.3125 90 L 101 90 Z M 101 81 " clip-rule="nonzero"/></clipPath><clipPath id="4ab50db960"><path d="M 58.3125 81 L 67 81 L 67 90 L 58.3125 90 Z M 58.3125 81 " clip-rule="nonzero"/></clipPath><clipPath id="4dc9f8fae4"><path d="M 66 114 L 101 114 L 101 116.6875 L 66 116.6875 Z M 66 114 " clip-rule="nonzero"/></clipPath><clipPath id="c59d9c5d49"><path d="M 58.3125 82 L 63 82 L 63 87 L 58.3125 87 Z M 58.3125 82 " clip-rule="nonzero"/></clipPath><clipPath id="64c0e94cdb"><path d="M 80 79.1875 L 84 79.1875 L 84 85 L 80 85 Z M 80 79.1875 " clip-rule="nonzero"/></clipPath></defs><g clip-path="url(#e5b3a2c29c)"><path fill="#000000" d="M 214.09375 120.429688 L 191.1875 120.429688 C 189.382812 120.429688 187.917969 121.886719 187.917969 123.683594 L 187.917969 260.421875 C 187.917969 262.21875 189.382812 263.679688 191.1875 263.679688 L 282.804688 263.679688 C 284.613281 263.679688 286.078125 262.21875 286.078125 260.421875 L 286.078125 240.890625 C 286.078125 239.089844 284.613281 237.632812 282.804688 237.632812 L 217.363281 237.632812 L 217.363281 123.683594 C 217.363281 121.886719 215.898438 120.429688 214.09375 120.429688 Z M 214.09375 120.429688 " fill-opacity="1" fill-rule="nonzero"/></g><g clip-path="url(#37a8c68235)"><path fill="#ff3131" d="M 213.839844 120.429688 L 184.5 120.429688 C 183.195312 120.429688 181.894531 121.078125 181.566406 122.382812 L 142.121094 217.773438 L 102.675781 122.382812 C 102.351562 121.078125 101.046875 120.429688 99.742188 120.429688 L 70.402344 120.429688 C 68.445312 120.429688 67.144531 121.730469 67.144531 123.683594 L 67.144531 260.421875 C 67.144531 262.375 68.445312 263.679688 70.402344 263.679688 L 93.222656 263.679688 C 95.179688 263.679688 96.484375 262.375 96.484375 260.421875 L 96.484375 172.519531 L 98.765625 172.519531 L 131.691406 251.957031 C 132.34375 253.261719 133.320312 253.910156 134.625 253.910156 L 149.945312 253.910156 C 151.25 253.910156 152.554688 253.261719 152.878906 251.957031 L 185.480469 172.519531 L 187.761719 172.519531 L 187.761719 260.421875 C 187.761719 262.375 189.066406 263.679688 191.019531 263.679688 L 213.839844 263.679688 C 215.796875 263.679688 217.101562 262.375 217.101562 260.421875 L 217.101562 123.683594 C 217.101562 121.730469 215.796875 120.429688 213.839844 120.429688 Z M 213.839844 120.429688 " fill-opacity="1" fill-rule="nonzero"/></g><g clip-path="url(#c6f289630e)"><g clip-path="url(#4978c2de0a)"><path fill="#000000" d="M 202.066406 120.429688 L 217.300781 120.429688 L 217.300781 263.984375 L 202.066406 263.984375 Z M 202.066406 120.429688 " fill-opacity="1" fill-rule="nonzero"/></g></g><path fill="#f8a62b" d="M 89.617188 104.285156 L 83.667969 84.320312 L 77.449219 104.640625 L 62.242188 85.644531 L 68.1875 114.269531 L 99.664062 114.269531 L 105.386719 85.644531 L 89.617188 104.285156 " fill-opacity="1" fill-rule="nonzero"/><path fill="#fbca5d" d="M 99.070312 113.167969 L 75.542969 113.167969 C 76.554688 113.039062 77.5625 112.871094 78.5625 112.664062 C 82.863281 111.761719 87.152344 110.492188 91.003906 108.335938 C 98.113281 104.351562 100.832031 96.683594 103.753906 89.546875 C 103.765625 89.550781 103.777344 89.554688 103.785156 89.558594 L 99.070312 113.167969 " fill-opacity="1" fill-rule="nonzero"/><g clip-path="url(#36d77ba9b9)"><path fill="#f58611" d="M 87.886719 83.257812 C 87.886719 85.507812 86.0625 87.332031 83.8125 87.332031 C 81.566406 87.332031 79.742188 85.507812 79.742188 83.257812 C 79.742188 81.007812 81.566406 79.183594 83.8125 79.183594 C 86.0625 79.183594 87.886719 81.007812 87.886719 83.257812 " fill-opacity="1" fill-rule="nonzero"/></g><g clip-path="url(#8e32047631)"><path fill="#f58611" d="M 109.3125 85.753906 C 109.3125 88.003906 107.488281 89.824219 105.238281 89.824219 C 102.992188 89.824219 101.167969 88.003906 101.167969 85.753906 C 101.167969 83.503906 102.992188 81.679688 105.238281 81.679688 C 107.488281 81.679688 109.3125 83.503906 109.3125 85.753906 " fill-opacity="1" fill-rule="nonzero"/></g><g clip-path="url(#4ab50db960)"><path fill="#f58611" d="M 66.460938 85.753906 C 66.460938 88.003906 64.636719 89.824219 62.386719 89.824219 C 60.136719 89.824219 58.316406 88.003906 58.316406 85.753906 C 58.316406 83.503906 60.136719 81.679688 62.386719 81.679688 C 64.636719 81.679688 66.460938 83.503906 66.460938 85.753906 " fill-opacity="1" fill-rule="nonzero"/></g><g clip-path="url(#4dc9f8fae4)"><path fill="#f58611" d="M 100.765625 115.425781 C 100.765625 116.113281 100.203125 116.671875 99.515625 116.671875 L 68.109375 116.671875 C 67.421875 116.671875 66.863281 116.113281 66.863281 115.425781 C 66.863281 114.738281 67.421875 114.175781 68.109375 114.175781 L 99.515625 114.175781 C 100.203125 114.175781 100.765625 114.738281 100.765625 115.425781 " fill-opacity="1" fill-rule="nonzero"/></g><path fill="#f9b30a" d="M 89.511719 115.21875 C 88.605469 115.210938 87.664062 115.203125 86.710938 115.183594 C 85.753906 115.167969 84.785156 115.152344 83.816406 115.136719 C 81.875 115.113281 79.933594 115.089844 78.117188 115.066406 C 76.296875 115.039062 74.601562 115.011719 73.144531 114.988281 C 70.234375 114.9375 68.296875 114.90625 68.296875 114.90625 L 68.265625 114.875 L 68.296875 114.84375 C 68.296875 114.84375 70.234375 114.808594 73.144531 114.757812 C 74.601562 114.738281 76.296875 114.710938 78.117188 114.683594 C 79.933594 114.660156 81.875 114.636719 83.816406 114.609375 C 84.785156 114.59375 85.753906 114.582031 86.710938 114.566406 C 87.664062 114.542969 88.605469 114.539062 89.511719 114.53125 C 90.421875 114.53125 91.304688 114.535156 92.136719 114.554688 C 92.96875 114.566406 93.757812 114.585938 94.484375 114.609375 C 97.394531 114.695312 99.335938 114.839844 99.335938 114.839844 L 99.363281 114.875 L 99.335938 114.90625 C 99.335938 114.90625 97.394531 115.054688 94.484375 115.136719 C 93.757812 115.160156 92.96875 115.179688 92.136719 115.195312 C 91.304688 115.210938 90.421875 115.214844 89.511719 115.21875 " fill-opacity="1" fill-rule="nonzero"/><path fill="#bc7d1f" d="M 78.667969 104.5 L 78.648438 104.460938 C 78.648438 104.460938 78.898438 103.433594 79.277344 101.890625 C 79.652344 100.351562 80.179688 98.300781 80.699219 96.25 C 80.824219 95.738281 80.953125 95.222656 81.078125 94.71875 C 81.199219 94.210938 81.332031 93.71875 81.457031 93.238281 C 81.589844 92.761719 81.726562 92.300781 81.863281 91.867188 C 82 91.433594 82.132812 91.027344 82.261719 90.648438 C 82.769531 89.144531 83.195312 88.167969 83.195312 88.167969 L 83.238281 88.148438 L 83.261719 88.183594 C 83.261719 88.183594 83.117188 89.242188 82.769531 90.789062 C 82.6875 91.179688 82.589844 91.597656 82.480469 92.039062 C 82.375 92.480469 82.253906 92.945312 82.121094 93.421875 C 81.976562 93.898438 81.835938 94.390625 81.675781 94.886719 C 81.523438 95.382812 81.363281 95.886719 81.207031 96.394531 C 80.589844 98.417969 79.980469 100.441406 79.503906 101.957031 C 79.027344 103.46875 78.710938 104.480469 78.710938 104.480469 L 78.667969 104.5 " fill-opacity="1" fill-rule="nonzero"/><path fill="#bc7d1f" d="M 90.472656 104.714844 L 90.464844 104.667969 C 90.464844 104.667969 91.207031 103.722656 92.316406 102.300781 C 92.871094 101.589844 93.519531 100.757812 94.222656 99.875 C 94.921875 98.992188 95.667969 98.050781 96.414062 97.105469 C 96.785156 96.636719 97.15625 96.164062 97.523438 95.695312 C 97.886719 95.226562 98.25 94.777344 98.601562 94.335938 C 98.960938 93.902344 99.316406 93.484375 99.65625 93.097656 C 99.996094 92.710938 100.320312 92.34375 100.625 92.011719 C 101.839844 90.675781 102.71875 89.839844 102.71875 89.839844 L 102.769531 89.84375 L 102.769531 89.882812 C 102.769531 89.882812 102.117188 90.902344 101.035156 92.347656 C 100.765625 92.710938 100.46875 93.097656 100.148438 93.507812 C 99.832031 93.914062 99.492188 94.339844 99.132812 94.773438 C 98.765625 95.203125 98.390625 95.648438 98 96.089844 C 97.609375 96.535156 97.214844 96.992188 96.820312 97.445312 C 96.035156 98.355469 95.253906 99.265625 94.515625 100.121094 C 93.78125 100.976562 93.089844 101.769531 92.496094 102.445312 C 91.308594 103.804688 90.519531 104.710938 90.519531 104.710938 L 90.472656 104.714844 " fill-opacity="1" fill-rule="nonzero"/><path fill="#bc7d1f" d="M 69 113.457031 L 68.957031 113.429688 C 68.957031 113.429688 68.613281 111.988281 68.089844 109.824219 C 67.828125 108.742188 67.519531 107.480469 67.203125 106.125 C 66.886719 104.773438 66.542969 103.328125 66.203125 101.882812 C 66.03125 101.160156 65.855469 100.441406 65.6875 99.730469 C 65.511719 99.023438 65.351562 98.320312 65.195312 97.644531 C 65.046875 96.960938 64.910156 96.304688 64.789062 95.675781 C 64.667969 95.054688 64.558594 94.460938 64.460938 93.910156 C 64.070312 91.71875 63.898438 90.238281 63.898438 90.238281 L 63.925781 90.199219 L 63.960938 90.222656 C 63.960938 90.222656 64.421875 91.640625 64.976562 93.800781 C 65.121094 94.339844 65.265625 94.921875 65.414062 95.542969 C 65.570312 96.160156 65.71875 96.816406 65.867188 97.496094 C 66.007812 98.175781 66.15625 98.878906 66.289062 99.597656 C 66.433594 100.3125 66.578125 101.042969 66.71875 101.769531 C 67.011719 103.226562 67.304688 104.679688 67.578125 106.042969 C 67.855469 107.40625 68.101562 108.683594 68.3125 109.777344 L 69.023438 113.417969 L 69 113.457031 " fill-opacity="1" fill-rule="nonzero"/><path fill="#f9b30a" d="M 105.289062 89.164062 C 104.207031 89.164062 103.25 88.640625 102.644531 87.835938 C 103.035156 88 103.464844 88.089844 103.917969 88.089844 C 105.746094 88.089844 107.226562 86.609375 107.226562 84.78125 C 107.226562 84.039062 106.980469 83.355469 106.5625 82.800781 C 107.757812 83.300781 108.601562 84.480469 108.601562 85.855469 C 108.601562 87.683594 107.117188 89.164062 105.289062 89.164062 " fill-opacity="1" fill-rule="nonzero"/><path fill="#f9b30a" d="M 83.792969 86.597656 C 82.707031 86.597656 81.746094 86.074219 81.144531 85.269531 C 81.539062 85.433594 81.96875 85.523438 82.417969 85.523438 C 84.246094 85.523438 85.726562 84.042969 85.726562 82.214844 C 85.726562 81.46875 85.480469 80.785156 85.066406 80.230469 C 86.261719 80.730469 87.101562 81.910156 87.101562 83.285156 C 87.101562 85.113281 85.621094 86.597656 83.792969 86.597656 " fill-opacity="1" fill-rule="nonzero"/><path fill="#f9b30a" d="M 62.367188 89.019531 C 61.28125 89.019531 60.324219 88.496094 59.71875 87.691406 C 60.109375 87.855469 60.542969 87.945312 60.996094 87.945312 C 62.824219 87.945312 64.304688 86.464844 64.304688 84.636719 C 64.304688 83.890625 64.054688 83.207031 63.640625 82.65625 C 64.832031 83.152344 65.675781 84.332031 65.675781 85.707031 C 65.675781 87.535156 64.195312 89.019531 62.367188 89.019531 " fill-opacity="1" fill-rule="nonzero"/><g clip-path="url(#c59d9c5d49)"><path fill="#ba640d" d="M 58.972656 86.417969 C 58.972656 86.417969 58.964844 86.398438 58.960938 86.355469 C 58.949219 86.3125 58.933594 86.25 58.921875 86.171875 C 58.90625 86.09375 58.898438 86 58.886719 85.886719 C 58.882812 85.777344 58.871094 85.648438 58.878906 85.511719 C 58.878906 85.371094 58.890625 85.222656 58.910156 85.0625 C 58.914062 84.980469 58.933594 84.898438 58.949219 84.816406 C 58.96875 84.734375 58.980469 84.644531 59.011719 84.558594 C 59.066406 84.390625 59.113281 84.210938 59.203125 84.042969 C 59.277344 83.863281 59.378906 83.699219 59.488281 83.535156 C 59.535156 83.445312 59.597656 83.371094 59.65625 83.292969 C 59.714844 83.214844 59.777344 83.136719 59.835938 83.054688 C 59.964844 82.90625 60.109375 82.777344 60.25 82.65625 C 60.40625 82.554688 60.570312 82.476562 60.722656 82.410156 C 60.878906 82.34375 61.039062 82.316406 61.179688 82.285156 C 61.300781 82.261719 61.414062 82.242188 61.519531 82.242188 L 61.574219 82.242188 C 61.695312 82.246094 61.796875 82.25 61.882812 82.261719 C 62.050781 82.277344 62.148438 82.308594 62.148438 82.308594 L 62.171875 82.398438 C 62.171875 82.398438 62.101562 82.480469 61.976562 82.585938 C 61.914062 82.640625 61.835938 82.699219 61.753906 82.765625 C 61.664062 82.824219 61.574219 82.90625 61.476562 82.980469 C 61.378906 83.0625 61.261719 83.128906 61.15625 83.214844 C 61.054688 83.308594 60.9375 83.386719 60.8125 83.460938 C 60.703125 83.550781 60.570312 83.621094 60.4375 83.703125 C 60.320312 83.796875 60.179688 83.882812 60.078125 84 C 59.972656 84.117188 59.859375 84.234375 59.773438 84.367188 C 59.679688 84.492188 59.605469 84.628906 59.527344 84.761719 C 59.457031 84.898438 59.394531 85.035156 59.339844 85.167969 C 59.289062 85.304688 59.242188 85.433594 59.210938 85.558594 C 59.136719 85.804688 59.109375 86.019531 59.085938 86.167969 C 59.066406 86.320312 59.066406 86.40625 59.066406 86.40625 L 58.972656 86.417969 " fill-opacity="1" fill-rule="nonzero"/></g><g clip-path="url(#64c0e94cdb)"><path fill="#ba640d" d="M 80.621094 84.144531 C 80.621094 84.144531 80.609375 84.121094 80.605469 84.082031 C 80.59375 84.039062 80.578125 83.976562 80.566406 83.898438 C 80.550781 83.820312 80.542969 83.722656 80.53125 83.609375 C 80.53125 83.5 80.515625 83.375 80.523438 83.238281 C 80.523438 83.097656 80.535156 82.945312 80.554688 82.785156 C 80.558594 82.703125 80.578125 82.625 80.597656 82.539062 C 80.617188 82.457031 80.625 82.371094 80.65625 82.285156 C 80.710938 82.117188 80.761719 81.933594 80.851562 81.765625 C 80.921875 81.589844 81.027344 81.421875 81.132812 81.257812 C 81.179688 81.171875 81.246094 81.097656 81.304688 81.019531 C 81.363281 80.9375 81.421875 80.859375 81.480469 80.78125 C 81.609375 80.632812 81.753906 80.5 81.898438 80.382812 C 82.054688 80.28125 82.214844 80.199219 82.371094 80.132812 C 82.523438 80.070312 82.683594 80.042969 82.824219 80.011719 C 82.945312 79.984375 83.058594 79.96875 83.164062 79.96875 L 83.21875 79.96875 C 83.339844 79.96875 83.441406 79.972656 83.527344 79.984375 C 83.699219 80.003906 83.796875 80.03125 83.796875 80.03125 L 83.820312 80.121094 C 83.820312 80.121094 83.746094 80.203125 83.621094 80.308594 C 83.558594 80.363281 83.484375 80.425781 83.398438 80.492188 C 83.308594 80.550781 83.21875 80.628906 83.121094 80.707031 C 83.023438 80.789062 82.910156 80.855469 82.800781 80.941406 C 82.699219 81.03125 82.582031 81.113281 82.460938 81.1875 C 82.347656 81.273438 82.214844 81.347656 82.082031 81.429688 C 81.964844 81.523438 81.824219 81.605469 81.722656 81.726562 C 81.617188 81.839844 81.507812 81.957031 81.421875 82.089844 C 81.324219 82.214844 81.25 82.355469 81.171875 82.484375 C 81.101562 82.625 81.042969 82.761719 80.988281 82.894531 C 80.933594 83.027344 80.886719 83.15625 80.855469 83.28125 C 80.785156 83.527344 80.753906 83.746094 80.734375 83.894531 C 80.710938 84.046875 80.710938 84.132812 80.710938 84.132812 L 80.621094 84.144531 " fill-opacity="1" fill-rule="nonzero"/></g><path fill="#ba640d" d="M 102.042969 86.785156 C 102.042969 86.785156 102.039062 86.761719 102.027344 86.722656 C 102.019531 86.679688 102.007812 86.621094 101.992188 86.539062 C 101.976562 86.460938 101.96875 86.363281 101.957031 86.253906 C 101.953125 86.144531 101.941406 86.015625 101.949219 85.878906 C 101.949219 85.738281 101.964844 85.589844 101.980469 85.429688 C 101.984375 85.347656 102.007812 85.265625 102.023438 85.183594 C 102.042969 85.097656 102.054688 85.011719 102.082031 84.929688 C 102.136719 84.757812 102.1875 84.578125 102.273438 84.40625 C 102.347656 84.230469 102.453125 84.0625 102.558594 83.898438 C 102.605469 83.8125 102.667969 83.738281 102.730469 83.660156 C 102.789062 83.578125 102.847656 83.5 102.90625 83.421875 C 103.035156 83.273438 103.179688 83.144531 103.324219 83.023438 C 103.476562 82.921875 103.640625 82.84375 103.796875 82.777344 C 103.953125 82.710938 104.109375 82.683594 104.25 82.652344 C 104.371094 82.628906 104.484375 82.609375 104.589844 82.609375 C 104.609375 82.609375 104.628906 82.609375 104.644531 82.609375 C 104.765625 82.613281 104.867188 82.617188 104.953125 82.628906 C 105.125 82.644531 105.21875 82.671875 105.21875 82.671875 L 105.242188 82.765625 C 105.242188 82.765625 105.171875 82.84375 105.046875 82.953125 C 104.984375 83.007812 104.910156 83.066406 104.824219 83.128906 C 104.734375 83.191406 104.644531 83.269531 104.546875 83.347656 C 104.449219 83.429688 104.335938 83.5 104.230469 83.582031 C 104.125 83.675781 104.011719 83.753906 103.886719 83.828125 C 103.773438 83.914062 103.640625 83.988281 103.507812 84.070312 C 103.390625 84.164062 103.25 84.25 103.148438 84.367188 C 103.042969 84.484375 102.933594 84.597656 102.847656 84.730469 C 102.753906 84.859375 102.675781 84.996094 102.597656 85.128906 C 102.527344 85.265625 102.464844 85.402344 102.410156 85.535156 C 102.359375 85.667969 102.3125 85.800781 102.28125 85.925781 C 102.207031 86.171875 102.179688 86.382812 102.160156 86.535156 C 102.140625 86.6875 102.140625 86.773438 102.140625 86.773438 L 102.042969 86.785156 " fill-opacity="1" fill-rule="nonzero"/></svg>