<svg xmlns="http://www.w3.org/2000/svg" xmlns:xlink="http://www.w3.org/1999/xlink" width="500" zoomAndPan="magnify" viewBox="0 0 375 149.999998" height="200" preserveAspectRatio="xMidYMid meet" version="1.0"><defs><clipPath id="e5942f9e20"><path d="M 103.964844 33.496094 L 225.464844 33.496094 L 225.464844 149.746094 L 103.964844 149.746094 Z M 103.964844 33.496094 " clip-rule="nonzero"/></clipPath><clipPath id="428d8bf385"><path d="M 202.042969 33.496094 L 281.542969 33.496094 L 281.542969 149.746094 L 202.042969 149.746094 Z M 202.042969 33.496094 " clip-rule="nonzero"/></clipPath><clipPath id="e75a9663e7"><path d="M 213.574219 33.496094 L 226 33.496094 L 226 150 L 213.574219 150 Z M 213.574219 33.496094 " clip-rule="nonzero"/></clipPath><clipPath id="fadf4ef857"><path d="M 216.574219 33.496094 L 222.800781 33.496094 C 224.457031 33.496094 225.800781 34.839844 225.800781 36.496094 L 225.800781 147 C 225.800781 148.65625 224.457031 150 222.800781 150 L 216.574219 150 C 214.917969 150 213.574219 148.65625 213.574219 147 L 213.574219 36.496094 C 213.574219 34.839844 214.917969 33.496094 216.574219 33.496094 " clip-rule="nonzero"/></clipPath><clipPath id="112a00b9e0"><path d="M 114 8.863281 L 120 8.863281 L 120 14 L 114 14 Z M 114 8.863281 " clip-rule="nonzero"/></clipPath><clipPath id="79808dc554"><path d="M 126 10 L 131.714844 10 L 131.714844 16 L 126 16 Z M 126 10 " clip-rule="nonzero"/></clipPath><clipPath id="dc9090da0a"><path d="M 101.714844 10 L 107 10 L 107 16 L 101.714844 16 Z M 101.714844 10 " clip-rule="nonzero"/></clipPath><clipPath id="f994c79ba5"><path d="M 106 29 L 127 29 L 127 30.613281 L 106 30.613281 Z M 106 29 " clip-rule="nonzero"/></clipPath><clipPath id="14480641ff"><path d="M 127 10 L 131.714844 10 L 131.714844 15 L 127 15 Z M 127 10 " clip-rule="nonzero"/></clipPath></defs><g clip-path="url(#e5942f9e20)"><path fill="#ff3131" d="M 222.808594 33.496094 L 199.042969 33.496094 C 197.988281 33.496094 196.929688 34.023438 196.667969 35.082031 L 164.714844 112.492188 L 132.765625 35.082031 C 132.503906 34.023438 131.445312 33.496094 130.390625 33.496094 L 106.625 33.496094 C 105.042969 33.496094 103.984375 34.550781 103.984375 36.136719 L 103.984375 147.105469 C 103.984375 148.6875 105.042969 149.746094 106.625 149.746094 L 125.109375 149.746094 C 126.695312 149.746094 127.75 148.6875 127.75 147.105469 L 127.75 75.769531 L 129.597656 75.769531 L 156.265625 140.234375 C 156.796875 141.292969 157.585938 141.820312 158.644531 141.820312 L 171.054688 141.820312 C 172.109375 141.820312 173.167969 141.292969 173.429688 140.234375 L 199.835938 75.769531 L 201.683594 75.769531 L 201.683594 147.105469 C 201.683594 148.6875 202.738281 149.746094 204.324219 149.746094 L 222.808594 149.746094 C 224.390625 149.746094 225.449219 148.6875 225.449219 147.105469 L 225.449219 36.136719 C 225.449219 34.550781 224.390625 33.496094 222.808594 33.496094 Z M 222.808594 33.496094 " fill-opacity="1" fill-rule="nonzero"/></g><g clip-path="url(#428d8bf385)"><path fill="#000000" d="M 223.261719 33.496094 L 204.730469 33.496094 C 203.269531 33.496094 202.085938 34.679688 202.085938 36.136719 L 202.085938 147.105469 C 202.085938 148.5625 203.269531 149.746094 204.730469 149.746094 L 278.855469 149.746094 C 280.316406 149.746094 281.503906 148.5625 281.503906 147.105469 L 281.503906 131.25 C 281.503906 129.792969 280.316406 128.609375 278.855469 128.609375 L 225.910156 128.609375 L 225.910156 36.136719 C 225.910156 34.679688 224.722656 33.496094 223.261719 33.496094 Z M 223.261719 33.496094 " fill-opacity="1" fill-rule="nonzero"/></g><g clip-path="url(#e75a9663e7)"><g clip-path="url(#fadf4ef857)"><path fill="#000000" d="M 213.574219 33.496094 L 225.710938 33.496094 L 225.710938 149.855469 L 213.574219 149.855469 Z M 213.574219 33.496094 " fill-opacity="1" fill-rule="nonzero"/></g></g><path fill="#f8a62b" d="M 120.128906 23.421875 L 116.628906 11.839844 L 112.972656 23.625 L 104.027344 12.605469 L 107.523438 29.210938 L 126.039062 29.210938 L 129.40625 12.605469 L 120.128906 23.421875 " fill-opacity="1" fill-rule="nonzero"/><path fill="#fbca5d" d="M 125.691406 28.570312 L 111.851562 28.570312 C 112.445312 28.496094 113.039062 28.398438 113.628906 28.277344 C 116.15625 27.753906 118.679688 27.019531 120.945312 25.769531 C 125.128906 23.457031 126.726562 19.011719 128.445312 14.871094 C 128.453125 14.875 128.460938 14.875 128.464844 14.878906 L 125.691406 28.570312 " fill-opacity="1" fill-rule="nonzero"/><g clip-path="url(#112a00b9e0)"><path fill="#f58611" d="M 119.113281 11.222656 C 119.113281 12.527344 118.039062 13.585938 116.714844 13.585938 C 115.394531 13.585938 114.320312 12.527344 114.320312 11.222656 C 114.320312 9.917969 115.394531 8.859375 116.714844 8.859375 C 118.039062 8.859375 119.113281 9.917969 119.113281 11.222656 " fill-opacity="1" fill-rule="nonzero"/></g><g clip-path="url(#79808dc554)"><path fill="#f58611" d="M 131.714844 12.671875 C 131.714844 13.976562 130.644531 15.03125 129.320312 15.03125 C 127.996094 15.03125 126.925781 13.976562 126.925781 12.671875 C 126.925781 11.367188 127.996094 10.308594 129.320312 10.308594 C 130.644531 10.308594 131.714844 11.367188 131.714844 12.671875 " fill-opacity="1" fill-rule="nonzero"/></g><g clip-path="url(#dc9090da0a)"><path fill="#f58611" d="M 106.507812 12.671875 C 106.507812 13.976562 105.4375 15.03125 104.113281 15.03125 C 102.789062 15.03125 101.71875 13.976562 101.71875 12.671875 C 101.71875 11.367188 102.789062 10.308594 104.113281 10.308594 C 105.4375 10.308594 106.507812 11.367188 106.507812 12.671875 " fill-opacity="1" fill-rule="nonzero"/></g><g clip-path="url(#f994c79ba5)"><path fill="#f58611" d="M 126.6875 29.878906 C 126.6875 30.28125 126.359375 30.605469 125.953125 30.605469 L 107.480469 30.605469 C 107.074219 30.605469 106.746094 30.28125 106.746094 29.878906 C 106.746094 29.480469 107.074219 29.15625 107.480469 29.15625 L 125.953125 29.15625 C 126.359375 29.15625 126.6875 29.480469 126.6875 29.878906 " fill-opacity="1" fill-rule="nonzero"/></g><path fill="#f9b30a" d="M 120.070312 29.761719 C 119.535156 29.753906 118.980469 29.75 118.421875 29.738281 C 117.859375 29.730469 117.289062 29.722656 116.71875 29.714844 C 115.578125 29.699219 114.433594 29.683594 113.363281 29.671875 C 112.296875 29.65625 111.296875 29.640625 110.441406 29.628906 C 108.730469 29.597656 107.589844 29.582031 107.589844 29.582031 L 107.570312 29.5625 L 107.589844 29.542969 C 107.589844 29.542969 108.730469 29.523438 110.441406 29.492188 C 111.296875 29.480469 112.296875 29.464844 113.363281 29.449219 C 114.433594 29.4375 115.578125 29.421875 116.71875 29.40625 C 117.289062 29.398438 117.859375 29.390625 118.421875 29.382812 C 118.980469 29.371094 119.535156 29.367188 120.070312 29.363281 C 120.601562 29.363281 121.121094 29.363281 121.613281 29.375 C 122.101562 29.382812 122.566406 29.394531 122.992188 29.40625 C 124.703125 29.457031 125.847656 29.542969 125.847656 29.542969 L 125.863281 29.5625 L 125.847656 29.582031 C 125.847656 29.582031 124.703125 29.664062 122.992188 29.714844 C 122.566406 29.726562 122.101562 29.738281 121.613281 29.746094 C 121.121094 29.757812 120.601562 29.757812 120.070312 29.761719 " fill-opacity="1" fill-rule="nonzero"/><path fill="#bc7d1f" d="M 113.6875 23.542969 L 113.675781 23.519531 C 113.675781 23.519531 113.824219 22.925781 114.046875 22.03125 C 114.265625 21.136719 114.578125 19.949219 114.882812 18.757812 C 114.957031 18.460938 115.035156 18.164062 115.109375 17.871094 C 115.179688 17.578125 115.257812 17.289062 115.328125 17.011719 C 115.40625 16.734375 115.488281 16.46875 115.570312 16.21875 C 115.648438 15.964844 115.726562 15.730469 115.804688 15.511719 C 116.101562 14.636719 116.351562 14.070312 116.351562 14.070312 L 116.378906 14.058594 L 116.390625 14.082031 C 116.390625 14.082031 116.308594 14.695312 116.101562 15.59375 C 116.054688 15.820312 115.996094 16.0625 115.933594 16.316406 C 115.871094 16.574219 115.796875 16.84375 115.71875 17.117188 C 115.636719 17.394531 115.550781 17.679688 115.457031 17.96875 C 115.367188 18.257812 115.273438 18.546875 115.183594 18.84375 C 114.820312 20.015625 114.460938 21.191406 114.179688 22.066406 C 113.898438 22.945312 113.714844 23.53125 113.714844 23.53125 L 113.6875 23.542969 " fill-opacity="1" fill-rule="nonzero"/><path fill="#bc7d1f" d="M 120.632812 23.667969 L 120.628906 23.640625 C 120.628906 23.640625 121.066406 23.09375 121.71875 22.269531 C 122.042969 21.855469 122.425781 21.375 122.839844 20.863281 C 123.25 20.347656 123.6875 19.800781 124.128906 19.257812 C 124.347656 18.984375 124.566406 18.707031 124.78125 18.4375 C 124.992188 18.164062 125.207031 17.902344 125.414062 17.648438 C 125.628906 17.394531 125.835938 17.15625 126.035156 16.929688 C 126.238281 16.707031 126.425781 16.492188 126.605469 16.300781 C 127.320312 15.527344 127.835938 15.042969 127.839844 15.042969 L 127.867188 15.042969 L 127.867188 15.066406 C 127.867188 15.066406 127.484375 15.65625 126.847656 16.496094 C 126.6875 16.707031 126.511719 16.929688 126.324219 17.167969 C 126.140625 17.402344 125.9375 17.648438 125.730469 17.902344 C 125.511719 18.152344 125.292969 18.410156 125.0625 18.667969 C 124.832031 18.925781 124.601562 19.1875 124.367188 19.453125 C 123.90625 19.980469 123.445312 20.507812 123.011719 21.003906 C 122.582031 21.5 122.171875 21.960938 121.824219 22.351562 C 121.125 23.140625 120.660156 23.667969 120.660156 23.667969 L 120.632812 23.667969 " fill-opacity="1" fill-rule="nonzero"/><path fill="#bc7d1f" d="M 108 28.738281 L 107.976562 28.722656 C 107.976562 28.722656 107.773438 27.886719 107.464844 26.632812 C 107.3125 26.003906 107.132812 25.273438 106.945312 24.488281 C 106.757812 23.703125 106.554688 22.863281 106.359375 22.027344 C 106.253906 21.609375 106.152344 21.1875 106.050781 20.777344 C 105.949219 20.367188 105.855469 19.960938 105.761719 19.566406 C 105.675781 19.171875 105.597656 18.789062 105.527344 18.425781 C 105.453125 18.0625 105.390625 17.71875 105.332031 17.402344 C 105.101562 16.128906 105 15.273438 105 15.273438 L 105.019531 15.25 L 105.039062 15.261719 C 105.039062 15.261719 105.308594 16.085938 105.636719 17.335938 C 105.71875 17.648438 105.804688 17.988281 105.894531 18.347656 C 105.984375 18.707031 106.070312 19.085938 106.160156 19.480469 C 106.242188 19.875 106.328125 20.285156 106.40625 20.699219 C 106.492188 21.117188 106.578125 21.539062 106.660156 21.960938 C 106.832031 22.804688 107.003906 23.648438 107.164062 24.4375 C 107.328125 25.230469 107.472656 25.96875 107.597656 26.605469 L 108.015625 28.714844 L 108 28.738281 " fill-opacity="1" fill-rule="nonzero"/><g clip-path="url(#14480641ff)"><path fill="#f9b30a" d="M 129.351562 14.648438 C 128.710938 14.648438 128.148438 14.347656 127.792969 13.878906 C 128.023438 13.976562 128.277344 14.027344 128.542969 14.027344 C 129.617188 14.027344 130.488281 13.167969 130.488281 12.105469 C 130.488281 11.675781 130.34375 11.277344 130.097656 10.957031 C 130.800781 11.246094 131.296875 11.933594 131.296875 12.730469 C 131.296875 13.789062 130.425781 14.648438 129.351562 14.648438 " fill-opacity="1" fill-rule="nonzero"/></g><path fill="#f9b30a" d="M 116.703125 13.160156 C 116.066406 13.160156 115.5 12.855469 115.148438 12.390625 C 115.378906 12.484375 115.628906 12.539062 115.894531 12.539062 C 116.972656 12.539062 117.84375 11.679688 117.84375 10.617188 C 117.84375 10.1875 117.695312 9.789062 117.453125 9.46875 C 118.15625 9.757812 118.648438 10.441406 118.648438 11.238281 C 118.648438 12.300781 117.777344 13.160156 116.703125 13.160156 " fill-opacity="1" fill-rule="nonzero"/><path fill="#f9b30a" d="M 104.097656 14.566406 C 103.460938 14.566406 102.898438 14.261719 102.542969 13.792969 C 102.773438 13.890625 103.027344 13.941406 103.292969 13.941406 C 104.367188 13.941406 105.238281 13.082031 105.238281 12.023438 C 105.238281 11.589844 105.09375 11.195312 104.851562 10.875 C 105.550781 11.164062 106.046875 11.847656 106.046875 12.644531 C 106.046875 13.707031 105.175781 14.566406 104.097656 14.566406 " fill-opacity="1" fill-rule="nonzero"/><path fill="#ba640d" d="M 102.105469 13.054688 C 102.105469 13.054688 102.101562 13.042969 102.09375 13.019531 C 102.089844 12.996094 102.082031 12.960938 102.074219 12.914062 C 102.0625 12.867188 102.058594 12.8125 102.054688 12.746094 C 102.050781 12.683594 102.042969 12.609375 102.046875 12.53125 C 102.046875 12.449219 102.054688 12.363281 102.066406 12.269531 C 102.070312 12.222656 102.082031 12.175781 102.089844 12.125 C 102.101562 12.078125 102.109375 12.027344 102.125 11.980469 C 102.15625 11.878906 102.1875 11.777344 102.238281 11.679688 C 102.28125 11.574219 102.34375 11.480469 102.40625 11.382812 C 102.433594 11.332031 102.472656 11.289062 102.507812 11.242188 C 102.542969 11.199219 102.578125 11.152344 102.613281 11.105469 C 102.6875 11.019531 102.773438 10.945312 102.855469 10.875 C 102.945312 10.816406 103.042969 10.769531 103.132812 10.730469 C 103.226562 10.691406 103.316406 10.675781 103.402344 10.660156 C 103.472656 10.644531 103.539062 10.632812 103.601562 10.632812 L 103.632812 10.632812 C 103.703125 10.636719 103.765625 10.640625 103.816406 10.644531 C 103.914062 10.65625 103.972656 10.671875 103.972656 10.671875 L 103.984375 10.726562 C 103.984375 10.726562 103.945312 10.773438 103.871094 10.832031 C 103.835938 10.863281 103.789062 10.898438 103.738281 10.9375 C 103.6875 10.972656 103.632812 11.019531 103.574219 11.0625 C 103.519531 11.109375 103.449219 11.148438 103.386719 11.199219 C 103.328125 11.25 103.261719 11.296875 103.1875 11.34375 C 103.121094 11.394531 103.042969 11.433594 102.964844 11.480469 C 102.898438 11.535156 102.8125 11.585938 102.753906 11.65625 C 102.691406 11.722656 102.625 11.789062 102.574219 11.867188 C 102.519531 11.9375 102.476562 12.019531 102.429688 12.09375 C 102.390625 12.175781 102.351562 12.253906 102.320312 12.332031 C 102.289062 12.410156 102.261719 12.484375 102.242188 12.558594 C 102.199219 12.699219 102.183594 12.824219 102.171875 12.910156 C 102.160156 13 102.160156 13.050781 102.160156 13.050781 L 102.105469 13.054688 " fill-opacity="1" fill-rule="nonzero"/><path fill="#ba640d" d="M 114.835938 11.738281 C 114.835938 11.738281 114.832031 11.726562 114.828125 11.699219 C 114.820312 11.675781 114.8125 11.640625 114.808594 11.59375 C 114.796875 11.546875 114.792969 11.492188 114.785156 11.429688 C 114.785156 11.363281 114.777344 11.289062 114.78125 11.210938 C 114.78125 11.128906 114.789062 11.042969 114.800781 10.949219 C 114.800781 10.902344 114.8125 10.855469 114.824219 10.808594 C 114.835938 10.761719 114.839844 10.707031 114.859375 10.660156 C 114.890625 10.5625 114.917969 10.457031 114.972656 10.359375 C 115.015625 10.253906 115.078125 10.160156 115.140625 10.0625 C 115.167969 10.011719 115.203125 9.96875 115.238281 9.925781 C 115.273438 9.878906 115.308594 9.832031 115.34375 9.785156 C 115.417969 9.699219 115.503906 9.625 115.589844 9.554688 C 115.679688 9.496094 115.773438 9.449219 115.867188 9.410156 C 115.957031 9.375 116.050781 9.359375 116.132812 9.339844 C 116.207031 9.324219 116.273438 9.316406 116.335938 9.316406 L 116.367188 9.316406 C 116.4375 9.316406 116.496094 9.320312 116.546875 9.324219 C 116.648438 9.335938 116.707031 9.351562 116.707031 9.351562 L 116.71875 9.40625 C 116.71875 9.40625 116.675781 9.449219 116.605469 9.511719 C 116.566406 9.542969 116.523438 9.582031 116.472656 9.617188 C 116.417969 9.652344 116.367188 9.699219 116.308594 9.742188 C 116.25 9.789062 116.183594 9.828125 116.121094 9.878906 C 116.058594 9.933594 115.992188 9.980469 115.917969 10.023438 C 115.851562 10.074219 115.777344 10.113281 115.699219 10.164062 C 115.628906 10.21875 115.546875 10.265625 115.484375 10.335938 C 115.425781 10.402344 115.359375 10.46875 115.308594 10.546875 C 115.253906 10.617188 115.207031 10.699219 115.164062 10.777344 C 115.121094 10.855469 115.085938 10.933594 115.054688 11.011719 C 115.023438 11.089844 114.996094 11.164062 114.976562 11.238281 C 114.933594 11.378906 114.917969 11.503906 114.90625 11.589844 C 114.890625 11.679688 114.890625 11.730469 114.890625 11.730469 L 114.835938 11.738281 " fill-opacity="1" fill-rule="nonzero"/><path fill="#ba640d" d="M 127.441406 13.269531 C 127.441406 13.269531 127.4375 13.257812 127.429688 13.234375 C 127.425781 13.207031 127.417969 13.171875 127.410156 13.128906 C 127.402344 13.082031 127.398438 13.023438 127.390625 12.960938 C 127.386719 12.898438 127.378906 12.824219 127.382812 12.742188 C 127.382812 12.664062 127.394531 12.574219 127.402344 12.480469 C 127.40625 12.433594 127.417969 12.386719 127.429688 12.339844 C 127.4375 12.292969 127.445312 12.242188 127.464844 12.191406 C 127.496094 12.09375 127.523438 11.988281 127.574219 11.890625 C 127.621094 11.789062 127.679688 11.691406 127.742188 11.59375 C 127.769531 11.542969 127.808594 11.5 127.84375 11.457031 C 127.878906 11.410156 127.914062 11.363281 127.949219 11.320312 C 128.023438 11.234375 128.109375 11.15625 128.191406 11.085938 C 128.285156 11.03125 128.378906 10.980469 128.472656 10.945312 C 128.5625 10.90625 128.65625 10.890625 128.738281 10.871094 C 128.808594 10.859375 128.875 10.847656 128.9375 10.847656 C 128.949219 10.847656 128.960938 10.847656 128.972656 10.847656 C 129.039062 10.847656 129.101562 10.851562 129.152344 10.859375 C 129.25 10.867188 129.308594 10.882812 129.308594 10.882812 L 129.320312 10.9375 C 129.320312 10.9375 129.28125 10.984375 129.207031 11.046875 C 129.171875 11.078125 129.125 11.113281 129.074219 11.148438 C 129.023438 11.183594 128.972656 11.230469 128.914062 11.277344 C 128.855469 11.324219 128.789062 11.363281 128.726562 11.410156 C 128.664062 11.464844 128.597656 11.511719 128.523438 11.554688 C 128.457031 11.605469 128.378906 11.648438 128.300781 11.695312 C 128.234375 11.75 128.148438 11.796875 128.089844 11.867188 C 128.027344 11.933594 127.964844 12 127.914062 12.078125 C 127.855469 12.152344 127.8125 12.230469 127.765625 12.308594 C 127.722656 12.386719 127.6875 12.464844 127.65625 12.542969 C 127.625 12.621094 127.597656 12.699219 127.578125 12.769531 C 127.539062 12.914062 127.519531 13.035156 127.507812 13.125 C 127.496094 13.210938 127.496094 13.261719 127.496094 13.261719 L 127.441406 13.269531 " fill-opacity="1" fill-rule="nonzero"/></svg>