<svg xmlns="http://www.w3.org/2000/svg" xmlns:xlink="http://www.w3.org/1999/xlink" width="500" zoomAndPan="magnify" viewBox="0 0 375 374.999991" height="500" preserveAspectRatio="xMidYMid meet" version="1.0"><defs><g/><clipPath id="3c9adaf199"><path d="M 47 131.777344 L 50 131.777344 L 50 135 L 47 135 Z M 47 131.777344 " clip-rule="nonzero"/></clipPath><clipPath id="202401016c"><path d="M 53 132 L 56.5 132 L 56.5 135 L 53 135 Z M 53 132 " clip-rule="nonzero"/></clipPath><clipPath id="0d8ee34729"><path d="M 40.75 132 L 44 132 L 44 135 L 40.75 135 Z M 40.75 132 " clip-rule="nonzero"/></clipPath><clipPath id="74b50bde74"><path d="M 43 142 L 54 142 L 54 143.027344 L 43 143.027344 Z M 43 142 " clip-rule="nonzero"/></clipPath><clipPath id="56a6d0ff5b"><path d="M 54 132 L 56.5 132 L 56.5 135 L 54 135 Z M 54 132 " clip-rule="nonzero"/></clipPath><clipPath id="1e0405949c"><path d="M 40.75 132 L 42 132 L 42 134 L 40.75 134 Z M 40.75 132 " clip-rule="nonzero"/></clipPath></defs><g fill="#000000" fill-opacity="1"><g transform="translate(85.226476, 203.571726)"><g><path d="M 17.25 -9.671875 L 42.78125 -9.671875 L 42.78125 0 L 5.21875 0 L 5.21875 -58.390625 L 17.25 -58.390625 Z M 17.25 -9.671875 "/></g></g></g><g fill="#000000" fill-opacity="1"><g transform="translate(124.76373, 203.571726)"><g><path d="M 29.59375 0 C 29.0625 -1.039062 28.675781 -2.335938 28.4375 -3.890625 C 25.625 -0.765625 21.972656 0.796875 17.484375 0.796875 C 13.234375 0.796875 9.710938 -0.429688 6.921875 -2.890625 C 4.128906 -5.347656 2.734375 -8.445312 2.734375 -12.1875 C 2.734375 -16.789062 4.4375 -20.320312 7.84375 -22.78125 C 11.25 -25.238281 16.171875 -26.476562 22.609375 -26.5 L 27.953125 -26.5 L 27.953125 -29 C 27.953125 -31 27.4375 -32.597656 26.40625 -33.796875 C 25.375 -35.003906 23.75 -35.609375 21.53125 -35.609375 C 19.582031 -35.609375 18.050781 -35.140625 16.9375 -34.203125 C 15.832031 -33.265625 15.28125 -31.984375 15.28125 -30.359375 L 3.6875 -30.359375 C 3.6875 -32.867188 4.460938 -35.191406 6.015625 -37.328125 C 7.566406 -39.472656 9.757812 -41.148438 12.59375 -42.359375 C 15.425781 -43.578125 18.609375 -44.1875 22.140625 -44.1875 C 27.484375 -44.1875 31.722656 -42.84375 34.859375 -40.15625 C 38.003906 -37.46875 39.578125 -33.691406 39.578125 -28.828125 L 39.578125 -10.03125 C 39.609375 -5.90625 40.179688 -2.789062 41.296875 -0.6875 L 41.296875 0 Z M 20.015625 -8.0625 C 21.722656 -8.0625 23.296875 -8.441406 24.734375 -9.203125 C 26.179688 -9.960938 27.253906 -10.984375 27.953125 -12.265625 L 27.953125 -19.734375 L 23.625 -19.734375 C 17.820312 -19.734375 14.734375 -17.726562 14.359375 -13.71875 L 14.3125 -13.03125 C 14.3125 -11.582031 14.816406 -10.390625 15.828125 -9.453125 C 16.847656 -8.523438 18.242188 -8.0625 20.015625 -8.0625 Z M 20.015625 -8.0625 "/></g></g></g><g fill="#000000" fill-opacity="1"><g transform="translate(163.859941, 203.571726)"><g><path d="M 15.3125 -43.390625 L 15.671875 -38.53125 C 18.753906 -42.300781 22.914062 -44.1875 28.15625 -44.1875 C 33.738281 -44.1875 37.570312 -41.984375 39.65625 -37.578125 C 42.707031 -41.984375 47.050781 -44.1875 52.6875 -44.1875 C 57.394531 -44.1875 60.894531 -42.816406 63.1875 -40.078125 C 65.488281 -37.335938 66.640625 -33.210938 66.640625 -27.703125 L 66.640625 0 L 55.015625 0 L 55.015625 -27.671875 C 55.015625 -30.128906 54.53125 -31.925781 53.5625 -33.0625 C 52.601562 -34.195312 50.910156 -34.765625 48.484375 -34.765625 C 45.003906 -34.765625 42.597656 -33.109375 41.265625 -29.796875 L 41.296875 0 L 29.71875 0 L 29.71875 -27.625 C 29.71875 -30.132812 29.222656 -31.953125 28.234375 -33.078125 C 27.242188 -34.203125 25.554688 -34.765625 23.171875 -34.765625 C 19.890625 -34.765625 17.515625 -33.398438 16.046875 -30.671875 L 16.046875 0 L 4.453125 0 L 4.453125 -43.390625 Z M 15.3125 -43.390625 "/></g></g></g><g fill="#000000" fill-opacity="1"><g transform="translate(230.019862, 203.571726)"><g><path d="M 43.546875 -21.296875 C 43.546875 -14.335938 42.0625 -8.914062 39.09375 -5.03125 C 36.125 -1.144531 31.984375 0.796875 26.671875 0.796875 C 21.960938 0.796875 18.207031 -1.003906 15.40625 -4.609375 L 14.875 0 L 4.453125 0 L 4.453125 -61.59375 L 16.046875 -61.59375 L 16.046875 -39.5 C 18.710938 -42.625 22.226562 -44.1875 26.59375 -44.1875 C 31.882812 -44.1875 36.03125 -42.238281 39.03125 -38.34375 C 42.039062 -34.457031 43.546875 -28.988281 43.546875 -21.9375 Z M 31.953125 -22.140625 C 31.953125 -26.523438 31.257812 -29.722656 29.875 -31.734375 C 28.488281 -33.753906 26.414062 -34.765625 23.65625 -34.765625 C 19.96875 -34.765625 17.429688 -33.253906 16.046875 -30.234375 L 16.046875 -13.109375 C 17.460938 -10.066406 20.023438 -8.546875 23.734375 -8.546875 C 27.484375 -8.546875 29.945312 -10.390625 31.125 -14.078125 C 31.675781 -15.835938 31.953125 -18.523438 31.953125 -22.140625 Z M 31.953125 -22.140625 "/></g></g></g><g fill="#000000" fill-opacity="1"><g transform="translate(271.321266, 203.571726)"><g><path d="M 2.640625 -22.015625 C 2.640625 -28.773438 4.15625 -34.160156 7.1875 -38.171875 C 10.226562 -42.179688 14.382812 -44.1875 19.65625 -44.1875 C 23.875 -44.1875 27.359375 -42.609375 30.109375 -39.453125 L 30.109375 -61.59375 L 41.75 -61.59375 L 41.75 0 L 31.28125 0 L 30.71875 -4.609375 C 27.832031 -1.003906 24.113281 0.796875 19.5625 0.796875 C 14.457031 0.796875 10.359375 -1.210938 7.265625 -5.234375 C 4.179688 -9.253906 2.640625 -14.847656 2.640625 -22.015625 Z M 14.234375 -21.171875 C 14.234375 -17.109375 14.941406 -13.992188 16.359375 -11.828125 C 17.773438 -9.660156 19.832031 -8.578125 22.53125 -8.578125 C 26.113281 -8.578125 28.640625 -10.085938 30.109375 -13.109375 L 30.109375 -30.234375 C 28.671875 -33.253906 26.171875 -34.765625 22.609375 -34.765625 C 17.023438 -34.765625 14.234375 -30.234375 14.234375 -21.171875 Z M 14.234375 -21.171875 "/></g></g></g><g fill="#000000" fill-opacity="1"><g transform="translate(312.66277, 203.571726)"><g><path d="M 29.59375 0 C 29.0625 -1.039062 28.675781 -2.335938 28.4375 -3.890625 C 25.625 -0.765625 21.972656 0.796875 17.484375 0.796875 C 13.234375 0.796875 9.710938 -0.429688 6.921875 -2.890625 C 4.128906 -5.347656 2.734375 -8.445312 2.734375 -12.1875 C 2.734375 -16.789062 4.4375 -20.320312 7.84375 -22.78125 C 11.25 -25.238281 16.171875 -26.476562 22.609375 -26.5 L 27.953125 -26.5 L 27.953125 -29 C 27.953125 -31 27.4375 -32.597656 26.40625 -33.796875 C 25.375 -35.003906 23.75 -35.609375 21.53125 -35.609375 C 19.582031 -35.609375 18.050781 -35.140625 16.9375 -34.203125 C 15.832031 -33.265625 15.28125 -31.984375 15.28125 -30.359375 L 3.6875 -30.359375 C 3.6875 -32.867188 4.460938 -35.191406 6.015625 -37.328125 C 7.566406 -39.472656 9.757812 -41.148438 12.59375 -42.359375 C 15.425781 -43.578125 18.609375 -44.1875 22.140625 -44.1875 C 27.484375 -44.1875 31.722656 -42.84375 34.859375 -40.15625 C 38.003906 -37.46875 39.578125 -33.691406 39.578125 -28.828125 L 39.578125 -10.03125 C 39.609375 -5.90625 40.179688 -2.789062 41.296875 -0.6875 L 41.296875 0 Z M 20.015625 -8.0625 C 21.722656 -8.0625 23.296875 -8.441406 24.734375 -9.203125 C 26.179688 -9.960938 27.253906 -10.984375 27.953125 -12.265625 L 27.953125 -19.734375 L 23.625 -19.734375 C 17.820312 -19.734375 14.734375 -17.726562 14.359375 -13.71875 L 14.3125 -13.03125 C 14.3125 -11.582031 14.816406 -10.390625 15.828125 -9.453125 C 16.847656 -8.523438 18.242188 -8.0625 20.015625 -8.0625 Z M 20.015625 -8.0625 "/></g></g></g><g fill="#ff3131" fill-opacity="1"><g transform="translate(35.253811, 203.571726)"><g><path d="M 20.9375 -58.390625 L 35.9375 -16.046875 L 50.84375 -58.390625 L 66.640625 -58.390625 L 66.640625 0 L 54.578125 0 L 54.578125 -15.953125 L 55.78125 -43.515625 L 40.015625 0 L 31.765625 0 L 16.046875 -43.46875 L 17.25 -15.953125 L 17.25 0 L 5.21875 0 L 5.21875 -58.390625 Z M 20.9375 -58.390625 "/></g></g></g><path fill="#f8a62b" d="M 50.417969 139.304688 L 48.578125 133.316406 L 46.65625 139.414062 L 41.960938 133.714844 L 43.796875 142.300781 L 53.519531 142.300781 L 55.289062 133.714844 L 50.417969 139.304688 " fill-opacity="1" fill-rule="nonzero"/><path fill="#fbca5d" d="M 53.335938 141.96875 L 46.070312 141.96875 C 46.382812 141.929688 46.695312 141.882812 47.003906 141.820312 C 48.332031 141.546875 49.65625 141.167969 50.84375 140.519531 C 53.042969 139.324219 53.878906 137.023438 54.785156 134.882812 C 54.789062 134.886719 54.789062 134.886719 54.792969 134.886719 L 53.335938 141.96875 " fill-opacity="1" fill-rule="nonzero"/><g clip-path="url(#3c9adaf199)"><path fill="#f58611" d="M 49.882812 132.996094 C 49.882812 133.671875 49.320312 134.21875 48.625 134.21875 C 47.929688 134.21875 47.367188 133.671875 47.367188 132.996094 C 47.367188 132.324219 47.929688 131.777344 48.625 131.777344 C 49.320312 131.777344 49.882812 132.324219 49.882812 132.996094 " fill-opacity="1" fill-rule="nonzero"/></g><g clip-path="url(#202401016c)"><path fill="#f58611" d="M 56.5 133.746094 C 56.5 134.421875 55.9375 134.96875 55.242188 134.96875 C 54.546875 134.96875 53.984375 134.421875 53.984375 133.746094 C 53.984375 133.070312 54.546875 132.523438 55.242188 132.523438 C 55.9375 132.523438 56.5 133.070312 56.5 133.746094 " fill-opacity="1" fill-rule="nonzero"/></g><g clip-path="url(#0d8ee34729)"><path fill="#f58611" d="M 43.265625 133.746094 C 43.265625 134.421875 42.699219 134.96875 42.007812 134.96875 C 41.3125 134.96875 40.75 134.421875 40.75 133.746094 C 40.75 133.070312 41.3125 132.523438 42.007812 132.523438 C 42.699219 132.523438 43.265625 133.070312 43.265625 133.746094 " fill-opacity="1" fill-rule="nonzero"/></g><g clip-path="url(#74b50bde74)"><path fill="#f58611" d="M 53.859375 142.648438 C 53.859375 142.855469 53.6875 143.023438 53.476562 143.023438 L 43.773438 143.023438 C 43.5625 143.023438 43.390625 142.855469 43.390625 142.648438 C 43.390625 142.441406 43.5625 142.273438 43.773438 142.273438 L 53.476562 142.273438 C 53.6875 142.273438 53.859375 142.441406 53.859375 142.648438 " fill-opacity="1" fill-rule="nonzero"/></g><path fill="#f9b30a" d="M 50.382812 142.585938 C 50.105469 142.582031 49.8125 142.582031 49.519531 142.574219 C 49.222656 142.570312 48.925781 142.566406 48.625 142.5625 C 48.027344 142.554688 47.425781 142.546875 46.863281 142.539062 C 46.304688 142.53125 45.777344 142.523438 45.328125 142.515625 C 44.429688 142.5 43.832031 142.492188 43.832031 142.492188 L 43.820312 142.480469 L 43.832031 142.472656 C 43.832031 142.472656 44.429688 142.460938 45.328125 142.449219 C 45.777344 142.441406 46.304688 142.433594 46.863281 142.425781 C 47.425781 142.417969 48.027344 142.410156 48.625 142.402344 C 48.925781 142.398438 49.222656 142.394531 49.519531 142.390625 C 49.8125 142.382812 50.105469 142.382812 50.382812 142.378906 C 50.664062 142.378906 50.9375 142.378906 51.195312 142.386719 C 51.453125 142.390625 51.695312 142.394531 51.917969 142.402344 C 52.820312 142.429688 53.417969 142.472656 53.417969 142.472656 L 53.425781 142.484375 L 53.417969 142.492188 C 53.417969 142.492188 52.820312 142.535156 51.917969 142.5625 C 51.695312 142.566406 51.453125 142.574219 51.195312 142.578125 C 50.9375 142.582031 50.664062 142.585938 50.382812 142.585938 " fill-opacity="1" fill-rule="nonzero"/><path fill="#bc7d1f" d="M 47.035156 139.371094 L 47.027344 139.359375 C 47.027344 139.359375 47.105469 139.050781 47.222656 138.585938 C 47.339844 138.125 47.5 137.511719 47.660156 136.894531 C 47.699219 136.742188 47.742188 136.585938 47.78125 136.4375 C 47.816406 136.285156 47.859375 136.136719 47.894531 135.992188 C 47.9375 135.847656 47.980469 135.710938 48.023438 135.582031 C 48.0625 135.449219 48.105469 135.328125 48.144531 135.214844 C 48.300781 134.765625 48.433594 134.46875 48.433594 134.46875 L 48.445312 134.464844 L 48.453125 134.476562 C 48.453125 134.476562 48.410156 134.792969 48.300781 135.257812 C 48.277344 135.375 48.246094 135.5 48.210938 135.632812 C 48.179688 135.765625 48.140625 135.90625 48.101562 136.046875 C 48.058594 136.191406 48.011719 136.335938 47.964844 136.484375 C 47.917969 136.636719 47.867188 136.785156 47.820312 136.9375 C 47.628906 137.546875 47.441406 138.152344 47.292969 138.605469 C 47.144531 139.0625 47.046875 139.363281 47.046875 139.363281 L 47.035156 139.371094 " fill-opacity="1" fill-rule="nonzero"/><path fill="#bc7d1f" d="M 50.679688 139.433594 L 50.679688 139.421875 C 50.679688 139.421875 50.90625 139.136719 51.25 138.710938 C 51.421875 138.496094 51.621094 138.246094 51.839844 137.984375 C 52.054688 137.71875 52.285156 137.433594 52.515625 137.152344 C 52.628906 137.011719 52.746094 136.867188 52.859375 136.730469 C 52.96875 136.589844 53.082031 136.453125 53.191406 136.320312 C 53.304688 136.191406 53.410156 136.066406 53.519531 135.949219 C 53.621094 135.832031 53.722656 135.722656 53.816406 135.625 C 54.191406 135.222656 54.464844 134.972656 54.464844 134.972656 L 54.480469 134.972656 L 54.480469 134.984375 C 54.480469 134.984375 54.277344 135.292969 53.941406 135.726562 C 53.859375 135.832031 53.769531 135.949219 53.667969 136.070312 C 53.570312 136.195312 53.464844 136.320312 53.355469 136.453125 C 53.242188 136.582031 53.128906 136.714844 53.007812 136.847656 C 52.886719 136.980469 52.765625 137.117188 52.640625 137.253906 C 52.398438 137.527344 52.15625 137.800781 51.929688 138.054688 C 51.703125 138.3125 51.488281 138.550781 51.304688 138.753906 C 50.9375 139.160156 50.695312 139.433594 50.695312 139.433594 L 50.679688 139.433594 " fill-opacity="1" fill-rule="nonzero"/><path fill="#bc7d1f" d="M 44.046875 142.058594 L 44.035156 142.050781 C 44.035156 142.050781 43.929688 141.617188 43.765625 140.96875 C 43.6875 140.644531 43.589844 140.265625 43.492188 139.859375 C 43.394531 139.453125 43.289062 139.019531 43.183594 138.585938 C 43.132812 138.367188 43.078125 138.152344 43.023438 137.9375 C 42.96875 137.726562 42.921875 137.515625 42.871094 137.3125 C 42.828125 137.109375 42.785156 136.910156 42.75 136.722656 C 42.710938 136.535156 42.675781 136.359375 42.648438 136.195312 C 42.527344 135.535156 42.472656 135.09375 42.472656 135.09375 L 42.480469 135.082031 L 42.492188 135.085938 C 42.492188 135.085938 42.632812 135.511719 42.804688 136.160156 C 42.851562 136.320312 42.894531 136.496094 42.941406 136.683594 C 42.988281 136.867188 43.035156 137.066406 43.082031 137.269531 C 43.125 137.472656 43.167969 137.683594 43.210938 137.898438 C 43.253906 138.113281 43.300781 138.332031 43.34375 138.550781 C 43.433594 138.988281 43.523438 139.425781 43.609375 139.832031 C 43.695312 140.242188 43.769531 140.625 43.835938 140.953125 L 44.054688 142.046875 L 44.046875 142.058594 " fill-opacity="1" fill-rule="nonzero"/><g clip-path="url(#56a6d0ff5b)"><path fill="#f9b30a" d="M 55.257812 134.769531 C 54.921875 134.769531 54.628906 134.613281 54.441406 134.371094 C 54.5625 134.421875 54.695312 134.449219 54.835938 134.449219 C 55.398438 134.449219 55.855469 134.003906 55.855469 133.453125 C 55.855469 133.230469 55.78125 133.027344 55.652344 132.859375 C 56.019531 133.011719 56.28125 133.363281 56.28125 133.777344 C 56.28125 134.324219 55.824219 134.769531 55.257812 134.769531 " fill-opacity="1" fill-rule="nonzero"/></g><path fill="#f9b30a" d="M 48.617188 134 C 48.28125 134 47.984375 133.84375 47.800781 133.601562 C 47.921875 133.652344 48.054688 133.675781 48.191406 133.675781 C 48.757812 133.675781 49.214844 133.234375 49.214844 132.683594 C 49.214844 132.460938 49.140625 132.253906 49.011719 132.089844 C 49.378906 132.238281 49.640625 132.59375 49.640625 133.007812 C 49.640625 133.554688 49.183594 134 48.617188 134 " fill-opacity="1" fill-rule="nonzero"/><path fill="#f9b30a" d="M 42 134.726562 C 41.664062 134.726562 41.367188 134.570312 41.183594 134.328125 C 41.304688 134.375 41.4375 134.402344 41.574219 134.402344 C 42.140625 134.402344 42.597656 133.960938 42.597656 133.410156 C 42.597656 133.1875 42.519531 132.984375 42.394531 132.816406 C 42.761719 132.964844 43.019531 133.320312 43.019531 133.734375 C 43.019531 134.28125 42.5625 134.726562 42 134.726562 " fill-opacity="1" fill-rule="nonzero"/><g clip-path="url(#1e0405949c)"><path fill="#ba640d" d="M 40.953125 133.945312 C 40.953125 133.945312 40.949219 133.941406 40.945312 133.925781 C 40.945312 133.914062 40.9375 133.894531 40.9375 133.871094 C 40.929688 133.847656 40.929688 133.820312 40.925781 133.785156 C 40.921875 133.753906 40.917969 133.714844 40.921875 133.675781 C 40.921875 133.632812 40.925781 133.585938 40.933594 133.539062 C 40.933594 133.515625 40.9375 133.488281 40.945312 133.464844 C 40.949219 133.441406 40.953125 133.414062 40.964844 133.386719 C 40.980469 133.339844 40.996094 133.285156 41.023438 133.234375 C 41.046875 133.179688 41.078125 133.128906 41.109375 133.082031 C 41.125 133.054688 41.144531 133.03125 41.164062 133.007812 C 41.179688 132.984375 41.199219 132.960938 41.21875 132.9375 C 41.257812 132.894531 41.300781 132.855469 41.347656 132.816406 C 41.394531 132.789062 41.445312 132.761719 41.492188 132.742188 C 41.539062 132.722656 41.589844 132.714844 41.632812 132.707031 C 41.671875 132.699219 41.707031 132.691406 41.738281 132.691406 L 41.753906 132.691406 C 41.792969 132.695312 41.824219 132.695312 41.851562 132.699219 C 41.902344 132.703125 41.933594 132.710938 41.933594 132.710938 L 41.9375 132.738281 C 41.9375 132.738281 41.917969 132.765625 41.878906 132.796875 C 41.859375 132.8125 41.835938 132.832031 41.808594 132.851562 C 41.78125 132.867188 41.753906 132.890625 41.722656 132.914062 C 41.695312 132.941406 41.660156 132.960938 41.625 132.984375 C 41.59375 133.011719 41.558594 133.035156 41.519531 133.058594 C 41.484375 133.085938 41.445312 133.105469 41.402344 133.132812 C 41.367188 133.160156 41.324219 133.183594 41.292969 133.222656 C 41.257812 133.253906 41.226562 133.289062 41.199219 133.332031 C 41.167969 133.367188 41.144531 133.410156 41.121094 133.449219 C 41.101562 133.488281 41.082031 133.53125 41.066406 133.570312 C 41.046875 133.613281 41.035156 133.652344 41.023438 133.6875 C 41.003906 133.761719 40.992188 133.828125 40.988281 133.871094 C 40.980469 133.917969 40.980469 133.941406 40.980469 133.941406 L 40.953125 133.945312 " fill-opacity="1" fill-rule="nonzero"/></g><path fill="#ba640d" d="M 47.636719 133.261719 C 47.636719 133.261719 47.636719 133.257812 47.632812 133.246094 C 47.628906 133.230469 47.625 133.214844 47.621094 133.191406 C 47.617188 133.167969 47.613281 133.136719 47.609375 133.105469 C 47.609375 133.070312 47.605469 133.03125 47.609375 132.992188 C 47.609375 132.949219 47.613281 132.90625 47.617188 132.855469 C 47.617188 132.832031 47.625 132.808594 47.628906 132.78125 C 47.636719 132.757812 47.640625 132.730469 47.648438 132.707031 C 47.664062 132.65625 47.679688 132.601562 47.707031 132.550781 C 47.730469 132.496094 47.761719 132.449219 47.796875 132.398438 C 47.808594 132.371094 47.832031 132.351562 47.847656 132.324219 C 47.867188 132.300781 47.886719 132.277344 47.902344 132.253906 C 47.941406 132.210938 47.988281 132.171875 48.03125 132.136719 C 48.082031 132.105469 48.128906 132.082031 48.179688 132.0625 C 48.226562 132.042969 48.277344 132.03125 48.320312 132.023438 C 48.355469 132.015625 48.390625 132.011719 48.421875 132.011719 L 48.441406 132.011719 C 48.476562 132.011719 48.507812 132.011719 48.535156 132.015625 C 48.589844 132.023438 48.617188 132.03125 48.617188 132.03125 L 48.625 132.058594 C 48.625 132.058594 48.601562 132.082031 48.566406 132.113281 C 48.546875 132.128906 48.523438 132.148438 48.496094 132.167969 C 48.46875 132.183594 48.441406 132.210938 48.410156 132.234375 C 48.378906 132.257812 48.34375 132.277344 48.3125 132.304688 C 48.28125 132.328125 48.242188 132.355469 48.207031 132.375 C 48.171875 132.402344 48.128906 132.425781 48.089844 132.449219 C 48.054688 132.476562 48.011719 132.503906 47.976562 132.539062 C 47.945312 132.574219 47.910156 132.605469 47.886719 132.648438 C 47.855469 132.683594 47.832031 132.726562 47.808594 132.765625 C 47.785156 132.808594 47.769531 132.847656 47.75 132.890625 C 47.734375 132.929688 47.71875 132.96875 47.710938 133.003906 C 47.6875 133.078125 47.679688 133.144531 47.671875 133.1875 C 47.667969 133.234375 47.667969 133.261719 47.667969 133.261719 L 47.636719 133.261719 " fill-opacity="1" fill-rule="nonzero"/><path fill="#ba640d" d="M 54.253906 134.054688 C 54.253906 134.054688 54.253906 134.050781 54.25 134.039062 C 54.246094 134.023438 54.242188 134.007812 54.238281 133.984375 C 54.234375 133.957031 54.230469 133.929688 54.230469 133.898438 C 54.226562 133.863281 54.222656 133.824219 54.226562 133.785156 C 54.226562 133.742188 54.230469 133.695312 54.234375 133.648438 C 54.238281 133.625 54.242188 133.601562 54.25 133.574219 C 54.253906 133.550781 54.257812 133.523438 54.265625 133.5 C 54.285156 133.449219 54.300781 133.394531 54.324219 133.34375 C 54.347656 133.289062 54.382812 133.238281 54.414062 133.191406 C 54.429688 133.164062 54.449219 133.140625 54.46875 133.117188 C 54.484375 133.09375 54.503906 133.070312 54.523438 133.046875 C 54.5625 133.003906 54.605469 132.964844 54.648438 132.925781 C 54.699219 132.898438 54.75 132.875 54.796875 132.855469 C 54.84375 132.832031 54.894531 132.824219 54.9375 132.816406 C 54.972656 132.808594 55.007812 132.804688 55.042969 132.804688 C 55.046875 132.804688 55.054688 132.804688 55.058594 132.804688 C 55.09375 132.804688 55.128906 132.804688 55.152344 132.808594 C 55.207031 132.8125 55.234375 132.824219 55.234375 132.824219 L 55.242188 132.851562 C 55.242188 132.851562 55.222656 132.875 55.183594 132.90625 C 55.164062 132.921875 55.140625 132.941406 55.113281 132.960938 C 55.085938 132.976562 55.058594 133 55.027344 133.023438 C 55 133.050781 54.960938 133.070312 54.929688 133.09375 C 54.898438 133.121094 54.863281 133.148438 54.824219 133.167969 C 54.789062 133.195312 54.75 133.21875 54.707031 133.242188 C 54.671875 133.269531 54.628906 133.296875 54.597656 133.332031 C 54.5625 133.367188 54.53125 133.398438 54.503906 133.441406 C 54.472656 133.476562 54.449219 133.519531 54.425781 133.558594 C 54.402344 133.601562 54.386719 133.640625 54.367188 133.679688 C 54.351562 133.722656 54.339844 133.761719 54.328125 133.796875 C 54.304688 133.871094 54.296875 133.9375 54.289062 133.980469 C 54.285156 134.027344 54.285156 134.054688 54.285156 134.054688 L 54.253906 134.054688 " fill-opacity="1" fill-rule="nonzero"/></svg>