<svg xmlns="http://www.w3.org/2000/svg" xmlns:xlink="http://www.w3.org/1999/xlink" width="500" zoomAndPan="magnify"
     viewBox="0 0 375 149.999998" height="200" preserveAspectRatio="xMidYMid meet" version="1.0">
  <defs>
    <g/>
    <clipPath id="7741332a0b">
      <path d="M 34 30.035156 L 37 30.035156 L 37 33 L 34 33 Z M 34 30.035156 " clip-rule="nonzero"/>
    </clipPath>
    <clipPath id="cb6db7214f">
      <path d="M 40 30.035156 L 43.617188 30.035156 L 43.617188 34 L 40 34 Z M 40 30.035156 " clip-rule="nonzero"/>
    </clipPath>
    <clipPath id="8420cf30ac">
      <path d="M 27.117188 30.035156 L 30 30.035156 L 30 34 L 27.117188 34 Z M 27.117188 30.035156 "
            clip-rule="nonzero"/>
    </clipPath>
    <clipPath id="f3595a16a0">
      <path d="M 29 41 L 41 41 L 41 42.035156 L 29 42.035156 Z M 29 41 " clip-rule="nonzero"/>
    </clipPath>
    <clipPath id="a55c8fdb24">
      <path d="M 41 31 L 43.617188 31 L 43.617188 34 L 41 34 Z M 41 31 " clip-rule="nonzero"/>
    </clipPath>
    <clipPath id="3c1c8b84ed">
      <path d="M 34 30.035156 L 37 30.035156 L 37 33 L 34 33 Z M 34 30.035156 " clip-rule="nonzero"/>
    </clipPath>
    <clipPath id="9863f6b482">
      <path d="M 27.117188 31 L 30 31 L 30 34 L 27.117188 34 Z M 27.117188 31 " clip-rule="nonzero"/>
    </clipPath>
    <clipPath id="6e5067a8ca">
      <path d="M 27.117188 31 L 29 31 L 29 33 L 27.117188 33 Z M 27.117188 31 " clip-rule="nonzero"/>
    </clipPath>
    <clipPath id="58d503b24d">
      <path d="M 34 30.035156 L 36 30.035156 L 36 32 L 34 32 Z M 34 30.035156 " clip-rule="nonzero"/>
    </clipPath>
  </defs>
  <g fill="#ff3131" fill-opacity="1">
    <g transform="translate(21.46109, 103.960259)">
      <g>
        <path d="M 21.546875 -60.125 L 37 -16.515625 L 52.359375 -60.125 L 68.625 -60.125 L 68.625 0 L 56.203125 0 L 56.203125 -16.4375 L 57.4375 -44.796875 L 41.203125 0 L 32.703125 0 L 16.515625 -44.765625 L 17.75 -16.4375 L 17.75 0 L 5.375 0 L 5.375 -60.125 Z M 21.546875 -60.125 "/>
      </g>
    </g>
  </g>
  <g fill="#000000" fill-opacity="1">
    <g transform="translate(72.914231, 103.960259)">
      <g>
        <path d="M 17.75 -9.953125 L 44.0625 -9.953125 L 44.0625 0 L 5.375 0 L 5.375 -60.125 L 17.75 -60.125 Z M 17.75 -9.953125 "/>
      </g>
    </g>
  </g>
  <g fill="#000000" fill-opacity="1">
    <g transform="translate(113.625659, 103.960259)">
      <g>
        <path d="M 30.46875 0 C 29.914062 -1.070312 29.519531 -2.40625 29.28125 -4 C 26.382812 -0.78125 22.625 0.828125 18 0.828125 C 13.625 0.828125 10 -0.4375 7.125 -2.96875 C 4.25 -5.5 2.8125 -8.691406 2.8125 -12.546875 C 2.8125 -17.285156 4.566406 -20.921875 8.078125 -23.453125 C 11.585938 -25.984375 16.65625 -27.265625 23.28125 -27.296875 L 28.78125 -27.296875 L 28.78125 -29.859375 C 28.78125 -31.921875 28.25 -33.570312 27.1875 -34.8125 C 26.125 -36.050781 24.453125 -36.671875 22.171875 -36.671875 C 20.160156 -36.671875 18.582031 -36.1875 17.4375 -35.21875 C 16.300781 -34.257812 15.734375 -32.9375 15.734375 -31.25 L 3.796875 -31.25 C 3.796875 -33.84375 4.59375 -36.238281 6.1875 -38.4375 C 7.789062 -40.644531 10.050781 -42.375 12.96875 -43.625 C 15.882812 -44.875 19.160156 -45.5 22.796875 -45.5 C 28.296875 -45.5 32.660156 -44.113281 35.890625 -41.34375 C 39.128906 -38.582031 40.75 -34.695312 40.75 -29.6875 L 40.75 -10.328125 C 40.78125 -6.085938 41.375 -2.878906 42.53125 -0.703125 L 42.53125 0 Z M 20.609375 -8.296875 C 22.367188 -8.296875 23.988281 -8.6875 25.46875 -9.46875 C 26.957031 -10.257812 28.0625 -11.316406 28.78125 -12.640625 L 28.78125 -20.3125 L 24.3125 -20.3125 C 18.34375 -20.3125 15.164062 -18.25 14.78125 -14.125 L 14.734375 -13.421875 C 14.734375 -11.929688 15.253906 -10.703125 16.296875 -9.734375 C 17.347656 -8.773438 18.785156 -8.296875 20.609375 -8.296875 Z M 20.609375 -8.296875 "/>
      </g>
    </g>
  </g>
  <g fill="#000000" fill-opacity="1">
    <g transform="translate(153.882944, 103.960259)">
      <g>
        <path d="M 15.765625 -44.671875 L 16.140625 -39.6875 C 19.304688 -43.5625 23.585938 -45.5 28.984375 -45.5 C 34.734375 -45.5 38.6875 -43.226562 40.84375 -38.6875 C 43.976562 -43.226562 48.445312 -45.5 54.25 -45.5 C 59.09375 -45.5 62.695312 -44.085938 65.0625 -41.265625 C 67.4375 -38.441406 68.625 -34.195312 68.625 -28.53125 L 68.625 0 L 56.65625 0 L 56.65625 -28.484375 C 56.65625 -31.015625 56.15625 -32.863281 55.15625 -34.03125 C 54.164062 -35.207031 52.421875 -35.796875 49.921875 -35.796875 C 46.335938 -35.796875 43.859375 -34.085938 42.484375 -30.671875 L 42.53125 0 L 30.59375 0 L 30.59375 -28.453125 C 30.59375 -31.035156 30.082031 -32.90625 29.0625 -34.0625 C 28.050781 -35.21875 26.316406 -35.796875 23.859375 -35.796875 C 20.472656 -35.796875 18.023438 -34.394531 16.515625 -31.59375 L 16.515625 0 L 4.578125 0 L 4.578125 -44.671875 Z M 15.765625 -44.671875 "/>
      </g>
    </g>
  </g>
  <g fill="#000000" fill-opacity="1">
    <g transform="translate(222.007676, 103.960259)">
      <g>
        <path d="M 44.84375 -21.921875 C 44.84375 -14.765625 43.3125 -9.179688 40.25 -5.171875 C 37.195312 -1.171875 32.929688 0.828125 27.453125 0.828125 C 22.609375 0.828125 18.742188 -1.03125 15.859375 -4.75 L 15.3125 0 L 4.578125 0 L 4.578125 -63.421875 L 16.515625 -63.421875 L 16.515625 -40.671875 C 19.265625 -43.890625 22.882812 -45.5 27.375 -45.5 C 32.820312 -45.5 37.09375 -43.492188 40.1875 -39.484375 C 43.289062 -35.484375 44.84375 -29.847656 44.84375 -22.578125 Z M 32.90625 -22.796875 C 32.90625 -27.304688 32.1875 -30.597656 30.75 -32.671875 C 29.320312 -34.753906 27.191406 -35.796875 24.359375 -35.796875 C 20.554688 -35.796875 17.941406 -34.242188 16.515625 -31.140625 L 16.515625 -13.5 C 17.972656 -10.363281 20.613281 -8.796875 24.4375 -8.796875 C 28.289062 -8.796875 30.828125 -10.695312 32.046875 -14.5 C 32.617188 -16.3125 32.90625 -19.078125 32.90625 -22.796875 Z M 32.90625 -22.796875 "/>
      </g>
    </g>
  </g>
  <g fill="#000000" fill-opacity="1">
    <g transform="translate(264.535645, 103.960259)">
      <g>
        <path d="M 2.71875 -22.671875 C 2.71875 -29.628906 4.28125 -35.171875 7.40625 -39.296875 C 10.53125 -43.429688 14.804688 -45.5 20.234375 -45.5 C 24.578125 -45.5 28.171875 -43.875 31.015625 -40.625 L 31.015625 -63.421875 L 42.984375 -63.421875 L 42.984375 0 L 32.203125 0 L 31.625 -4.75 C 28.65625 -1.03125 24.832031 0.828125 20.15625 0.828125 C 14.894531 0.828125 10.671875 -1.242188 7.484375 -5.390625 C 4.304688 -9.535156 2.71875 -15.296875 2.71875 -22.671875 Z M 14.65625 -21.796875 C 14.65625 -17.617188 15.382812 -14.414062 16.84375 -12.1875 C 18.300781 -9.957031 20.421875 -8.84375 23.203125 -8.84375 C 26.890625 -8.84375 29.492188 -10.394531 31.015625 -13.5 L 31.015625 -31.140625 C 29.523438 -34.242188 26.945312 -35.796875 23.28125 -35.796875 C 17.53125 -35.796875 14.65625 -31.128906 14.65625 -21.796875 Z M 14.65625 -21.796875 "/>
      </g>
    </g>
  </g>
  <g fill="#000000" fill-opacity="1">
    <g transform="translate(307.104904, 103.960259)">
      <g>
        <path d="M 30.46875 0 C 29.914062 -1.070312 29.519531 -2.40625 29.28125 -4 C 26.382812 -0.78125 22.625 0.828125 18 0.828125 C 13.625 0.828125 10 -0.4375 7.125 -2.96875 C 4.25 -5.5 2.8125 -8.691406 2.8125 -12.546875 C 2.8125 -17.285156 4.566406 -20.921875 8.078125 -23.453125 C 11.585938 -25.984375 16.65625 -27.265625 23.28125 -27.296875 L 28.78125 -27.296875 L 28.78125 -29.859375 C 28.78125 -31.921875 28.25 -33.570312 27.1875 -34.8125 C 26.125 -36.050781 24.453125 -36.671875 22.171875 -36.671875 C 20.160156 -36.671875 18.582031 -36.1875 17.4375 -35.21875 C 16.300781 -34.257812 15.734375 -32.9375 15.734375 -31.25 L 3.796875 -31.25 C 3.796875 -33.84375 4.59375 -36.238281 6.1875 -38.4375 C 7.789062 -40.644531 10.050781 -42.375 12.96875 -43.625 C 15.882812 -44.875 19.160156 -45.5 22.796875 -45.5 C 28.296875 -45.5 32.660156 -44.113281 35.890625 -41.34375 C 39.128906 -38.582031 40.75 -34.695312 40.75 -29.6875 L 40.75 -10.328125 C 40.78125 -6.085938 41.375 -2.878906 42.53125 -0.703125 L 42.53125 0 Z M 20.609375 -8.296875 C 22.367188 -8.296875 23.988281 -8.6875 25.46875 -9.46875 C 26.957031 -10.257812 28.0625 -11.316406 28.78125 -12.640625 L 28.78125 -20.3125 L 24.3125 -20.3125 C 18.34375 -20.3125 15.164062 -18.25 14.78125 -14.125 L 14.734375 -13.421875 C 14.734375 -11.929688 15.253906 -10.703125 16.296875 -9.734375 C 17.347656 -8.773438 18.785156 -8.296875 20.609375 -8.296875 Z M 20.609375 -8.296875 "/>
      </g>
    </g>
  </g>
  <path fill="#f8a62b"
        d="M 37.242188 38.066406 L 35.320312 31.675781 L 33.308594 38.179688 L 28.386719 32.097656 L 30.3125 41.257812 L 40.492188 41.257812 L 42.34375 32.097656 L 37.242188 38.066406 "
        fill-opacity="1" fill-rule="nonzero"/>
  <path fill="#fbca5d"
        d="M 40.300781 40.90625 L 32.691406 40.90625 C 33.015625 40.863281 33.34375 40.8125 33.667969 40.746094 C 35.058594 40.457031 36.445312 40.050781 37.691406 39.359375 C 39.992188 38.085938 40.871094 35.632812 41.816406 33.347656 C 41.820312 33.347656 41.824219 33.351562 41.828125 33.351562 L 40.300781 40.90625 "
        fill-opacity="1" fill-rule="nonzero"/>
  <g clip-path="url(#7741332a0b)">
    <path fill="#f58611"
          d="M 36.683594 31.335938 C 36.683594 32.054688 36.09375 32.640625 35.367188 32.640625 C 34.636719 32.640625 34.050781 32.054688 34.050781 31.335938 C 34.050781 30.613281 34.636719 30.03125 35.367188 30.03125 C 36.09375 30.03125 36.683594 30.613281 36.683594 31.335938 "
          fill-opacity="1" fill-rule="nonzero"/>
  </g>
  <g clip-path="url(#cb6db7214f)">
    <path fill="#f58611"
          d="M 43.613281 32.132812 C 43.613281 32.855469 43.023438 33.4375 42.296875 33.4375 C 41.570312 33.4375 40.980469 32.855469 40.980469 32.132812 C 40.980469 31.414062 41.570312 30.828125 42.296875 30.828125 C 43.023438 30.828125 43.613281 31.414062 43.613281 32.132812 "
          fill-opacity="1" fill-rule="nonzero"/>
  </g>
  <g clip-path="url(#8420cf30ac)">
    <path fill="#f58611"
          d="M 29.753906 32.132812 C 29.753906 32.855469 29.164062 33.4375 28.433594 33.4375 C 27.707031 33.4375 27.117188 32.855469 27.117188 32.132812 C 27.117188 31.414062 27.707031 30.828125 28.433594 30.828125 C 29.164062 30.828125 29.753906 31.414062 29.753906 32.132812 "
          fill-opacity="1" fill-rule="nonzero"/>
  </g>
  <g clip-path="url(#f3595a16a0)">
    <path fill="#f58611"
          d="M 40.847656 41.628906 C 40.847656 41.847656 40.667969 42.027344 40.445312 42.027344 L 30.285156 42.027344 C 30.0625 42.027344 29.882812 41.847656 29.882812 41.628906 C 29.882812 41.410156 30.0625 41.230469 30.285156 41.230469 L 40.445312 41.230469 C 40.667969 41.230469 40.847656 41.410156 40.847656 41.628906 "
          fill-opacity="1" fill-rule="nonzero"/>
  </g>
  <path fill="#f9b30a"
        d="M 37.210938 41.5625 C 36.914062 41.558594 36.613281 41.558594 36.304688 41.550781 C 35.992188 41.546875 35.679688 41.542969 35.367188 41.535156 C 34.738281 41.527344 34.109375 41.519531 33.523438 41.515625 C 32.933594 41.503906 32.386719 41.496094 31.914062 41.488281 C 30.972656 41.472656 30.347656 41.464844 30.347656 41.464844 L 30.335938 41.453125 L 30.347656 41.441406 C 30.347656 41.441406 30.972656 41.429688 31.914062 41.414062 C 32.386719 41.410156 32.933594 41.398438 33.523438 41.390625 C 34.109375 41.382812 34.738281 41.375 35.367188 41.367188 C 35.679688 41.363281 35.992188 41.359375 36.304688 41.355469 C 36.613281 41.347656 36.914062 41.34375 37.210938 41.34375 C 37.503906 41.34375 37.789062 41.34375 38.058594 41.351562 C 38.328125 41.355469 38.582031 41.359375 38.816406 41.367188 C 39.757812 41.394531 40.386719 41.441406 40.386719 41.441406 L 40.394531 41.453125 L 40.386719 41.464844 C 40.386719 41.464844 39.757812 41.511719 38.816406 41.535156 C 38.582031 41.542969 38.328125 41.550781 38.058594 41.554688 C 37.789062 41.5625 37.503906 41.5625 37.210938 41.5625 "
        fill-opacity="1" fill-rule="nonzero"/>
  <path fill="#bc7d1f"
        d="M 33.703125 38.132812 L 33.695312 38.121094 C 33.695312 38.121094 33.777344 37.792969 33.898438 37.296875 C 34.019531 36.804688 34.191406 36.148438 34.359375 35.492188 C 34.398438 35.328125 34.441406 35.164062 34.480469 35.003906 C 34.519531 34.839844 34.5625 34.683594 34.601562 34.527344 C 34.644531 34.375 34.691406 34.230469 34.734375 34.089844 C 34.777344 33.953125 34.820312 33.820312 34.863281 33.699219 C 35.027344 33.21875 35.167969 32.90625 35.167969 32.90625 L 35.179688 32.898438 L 35.1875 32.910156 C 35.1875 32.910156 35.140625 33.25 35.027344 33.746094 C 35 33.871094 34.96875 34.003906 34.933594 34.144531 C 34.898438 34.289062 34.859375 34.4375 34.816406 34.589844 C 34.773438 34.742188 34.726562 34.898438 34.675781 35.054688 C 34.625 35.214844 34.574219 35.375 34.523438 35.539062 C 34.324219 36.1875 34.125 36.835938 33.972656 37.320312 C 33.816406 37.804688 33.714844 38.125 33.714844 38.125 L 33.703125 38.132812 "
        fill-opacity="1" fill-rule="nonzero"/>
  <path fill="#bc7d1f"
        d="M 37.519531 38.203125 L 37.519531 38.1875 C 37.519531 38.1875 37.757812 37.882812 38.117188 37.429688 C 38.296875 37.203125 38.503906 36.933594 38.734375 36.652344 C 38.957031 36.371094 39.199219 36.070312 39.441406 35.765625 C 39.5625 35.617188 39.683594 35.464844 39.800781 35.316406 C 39.917969 35.164062 40.035156 35.019531 40.148438 34.878906 C 40.265625 34.742188 40.378906 34.609375 40.492188 34.484375 C 40.601562 34.359375 40.707031 34.242188 40.804688 34.136719 C 41.199219 33.710938 41.480469 33.441406 41.480469 33.441406 L 41.496094 33.441406 L 41.496094 33.457031 C 41.496094 33.457031 41.289062 33.78125 40.9375 34.246094 C 40.847656 34.359375 40.753906 34.484375 40.648438 34.613281 C 40.546875 34.746094 40.4375 34.882812 40.320312 35.019531 C 40.203125 35.15625 40.082031 35.300781 39.953125 35.441406 C 39.828125 35.585938 39.699219 35.730469 39.574219 35.875 C 39.320312 36.167969 39.066406 36.457031 38.828125 36.730469 C 38.589844 37.003906 38.367188 37.257812 38.175781 37.476562 C 37.789062 37.910156 37.535156 38.199219 37.535156 38.199219 L 37.519531 38.203125 "
        fill-opacity="1" fill-rule="nonzero"/>
  <path fill="#bc7d1f"
        d="M 30.574219 41 L 30.5625 40.992188 C 30.5625 40.992188 30.449219 40.53125 30.28125 39.835938 C 30.195312 39.492188 30.09375 39.085938 29.992188 38.652344 C 29.890625 38.21875 29.777344 37.757812 29.667969 37.296875 C 29.613281 37.066406 29.558594 36.832031 29.503906 36.605469 C 29.445312 36.378906 29.394531 36.15625 29.34375 35.9375 C 29.296875 35.722656 29.25 35.511719 29.210938 35.308594 C 29.171875 35.109375 29.136719 34.921875 29.105469 34.746094 C 28.980469 34.042969 28.921875 33.570312 28.921875 33.570312 L 28.933594 33.558594 L 28.945312 33.5625 C 28.945312 33.5625 29.09375 34.019531 29.273438 34.707031 C 29.320312 34.882812 29.367188 35.066406 29.414062 35.265625 C 29.464844 35.464844 29.511719 35.675781 29.558594 35.890625 C 29.605469 36.109375 29.652344 36.335938 29.699219 36.566406 C 29.742188 36.792969 29.789062 37.027344 29.835938 37.257812 C 29.929688 37.726562 30.027344 38.191406 30.113281 38.625 C 30.203125 39.0625 30.28125 39.472656 30.351562 39.820312 L 30.582031 40.988281 L 30.574219 41 "
        fill-opacity="1" fill-rule="nonzero"/>
  <g clip-path="url(#a55c8fdb24)">
    <path fill="#f9b30a"
          d="M 42.3125 33.226562 C 41.960938 33.226562 41.652344 33.058594 41.457031 32.800781 C 41.582031 32.851562 41.722656 32.882812 41.871094 32.882812 C 42.460938 32.882812 42.941406 32.40625 42.941406 31.824219 C 42.941406 31.585938 42.859375 31.367188 42.726562 31.1875 C 43.113281 31.347656 43.382812 31.726562 43.382812 32.167969 C 43.382812 32.75 42.90625 33.226562 42.3125 33.226562 "
          fill-opacity="1" fill-rule="nonzero"/>
  </g>
  <g clip-path="url(#3c1c8b84ed)">
    <path fill="#f9b30a"
          d="M 35.359375 32.402344 C 35.007812 32.402344 34.699219 32.238281 34.503906 31.980469 C 34.628906 32.03125 34.769531 32.058594 34.914062 32.058594 C 35.507812 32.058594 35.984375 31.585938 35.984375 31 C 35.984375 30.761719 35.90625 30.542969 35.769531 30.367188 C 36.15625 30.527344 36.429688 30.90625 36.429688 31.34375 C 36.429688 31.929688 35.949219 32.402344 35.359375 32.402344 "
          fill-opacity="1" fill-rule="nonzero"/>
  </g>
  <g clip-path="url(#9863f6b482)">
    <path fill="#f9b30a"
          d="M 28.429688 33.179688 C 28.078125 33.179688 27.765625 33.011719 27.570312 32.753906 C 27.699219 32.804688 27.839844 32.835938 27.984375 32.835938 C 28.574219 32.835938 29.054688 32.359375 29.054688 31.777344 C 29.054688 31.539062 28.972656 31.320312 28.839844 31.140625 C 29.226562 31.300781 29.5 31.679688 29.5 32.121094 C 29.5 32.703125 29.019531 33.179688 28.429688 33.179688 "
          fill-opacity="1" fill-rule="nonzero"/>
  </g>
  <g clip-path="url(#6e5067a8ca)">
    <path fill="#ba640d"
          d="M 27.332031 32.347656 C 27.332031 32.347656 27.328125 32.339844 27.324219 32.328125 C 27.324219 32.3125 27.316406 32.292969 27.316406 32.269531 C 27.308594 32.242188 27.304688 32.210938 27.304688 32.175781 C 27.300781 32.140625 27.296875 32.101562 27.300781 32.058594 C 27.300781 32.011719 27.304688 31.964844 27.308594 31.914062 C 27.3125 31.886719 27.316406 31.859375 27.324219 31.832031 C 27.328125 31.808594 27.332031 31.78125 27.34375 31.753906 C 27.359375 31.699219 27.375 31.640625 27.40625 31.585938 C 27.429688 31.527344 27.460938 31.476562 27.496094 31.425781 C 27.511719 31.394531 27.535156 31.371094 27.550781 31.347656 C 27.570312 31.320312 27.589844 31.296875 27.609375 31.269531 C 27.652344 31.222656 27.699219 31.179688 27.742188 31.144531 C 27.792969 31.109375 27.847656 31.085938 27.898438 31.0625 C 27.949219 31.042969 28 31.035156 28.042969 31.023438 C 28.082031 31.015625 28.121094 31.011719 28.15625 31.011719 L 28.171875 31.011719 C 28.210938 31.011719 28.246094 31.011719 28.273438 31.015625 C 28.328125 31.023438 28.359375 31.03125 28.359375 31.03125 L 28.367188 31.058594 C 28.367188 31.058594 28.34375 31.085938 28.300781 31.121094 C 28.28125 31.136719 28.257812 31.15625 28.230469 31.179688 C 28.199219 31.195312 28.171875 31.222656 28.140625 31.246094 C 28.109375 31.273438 28.070312 31.292969 28.035156 31.320312 C 28.003906 31.351562 27.964844 31.378906 27.925781 31.402344 C 27.890625 31.429688 27.847656 31.453125 27.804688 31.476562 C 27.765625 31.507812 27.722656 31.535156 27.6875 31.574219 C 27.652344 31.609375 27.617188 31.648438 27.589844 31.691406 C 27.558594 31.730469 27.535156 31.773438 27.511719 31.816406 C 27.488281 31.859375 27.46875 31.90625 27.449219 31.945312 C 27.433594 31.992188 27.417969 32.03125 27.40625 32.070312 C 27.382812 32.148438 27.375 32.21875 27.367188 32.265625 C 27.359375 32.316406 27.359375 32.34375 27.359375 32.34375 L 27.332031 32.347656 "
          fill-opacity="1" fill-rule="nonzero"/>
  </g>
  <g clip-path="url(#58d503b24d)">
    <path fill="#ba640d"
          d="M 34.332031 31.617188 C 34.332031 31.617188 34.328125 31.613281 34.328125 31.597656 C 34.324219 31.585938 34.320312 31.566406 34.316406 31.539062 C 34.308594 31.515625 34.308594 31.484375 34.304688 31.449219 C 34.304688 31.414062 34.300781 31.371094 34.300781 31.328125 C 34.300781 31.285156 34.304688 31.234375 34.3125 31.183594 C 34.3125 31.160156 34.320312 31.132812 34.324219 31.105469 C 34.332031 31.078125 34.335938 31.050781 34.34375 31.023438 C 34.363281 30.96875 34.378906 30.910156 34.40625 30.859375 C 34.429688 30.800781 34.464844 30.75 34.5 30.695312 C 34.515625 30.667969 34.535156 30.644531 34.554688 30.617188 C 34.574219 30.59375 34.59375 30.566406 34.613281 30.542969 C 34.652344 30.496094 34.699219 30.453125 34.746094 30.414062 C 34.796875 30.382812 34.847656 30.355469 34.898438 30.335938 C 34.949219 30.316406 35 30.304688 35.046875 30.296875 C 35.085938 30.289062 35.121094 30.28125 35.15625 30.28125 L 35.171875 30.28125 C 35.210938 30.28125 35.246094 30.285156 35.273438 30.289062 C 35.328125 30.292969 35.359375 30.304688 35.359375 30.304688 L 35.367188 30.332031 C 35.367188 30.332031 35.34375 30.359375 35.304688 30.390625 C 35.285156 30.410156 35.257812 30.429688 35.230469 30.449219 C 35.203125 30.46875 35.171875 30.496094 35.140625 30.519531 C 35.109375 30.546875 35.074219 30.566406 35.039062 30.59375 C 35.003906 30.621094 34.96875 30.648438 34.929688 30.671875 C 34.890625 30.699219 34.847656 30.722656 34.804688 30.75 C 34.769531 30.78125 34.722656 30.808594 34.691406 30.84375 C 34.65625 30.882812 34.621094 30.917969 34.59375 30.960938 C 34.5625 31 34.535156 31.046875 34.511719 31.089844 C 34.488281 31.132812 34.46875 31.175781 34.453125 31.21875 C 34.433594 31.261719 34.417969 31.304688 34.410156 31.34375 C 34.386719 31.421875 34.375 31.492188 34.371094 31.539062 C 34.363281 31.585938 34.363281 31.613281 34.363281 31.613281 L 34.332031 31.617188 "
          fill-opacity="1" fill-rule="nonzero"/>
  </g>
  <path fill="#ba640d"
        d="M 41.261719 32.464844 C 41.261719 32.464844 41.261719 32.457031 41.257812 32.445312 C 41.253906 32.429688 41.25 32.410156 41.246094 32.386719 C 41.242188 32.359375 41.238281 32.328125 41.234375 32.292969 C 41.234375 32.257812 41.230469 32.21875 41.234375 32.171875 C 41.234375 32.128906 41.238281 32.082031 41.242188 32.03125 C 41.242188 32.003906 41.25 31.976562 41.257812 31.953125 C 41.261719 31.925781 41.265625 31.898438 41.277344 31.871094 C 41.292969 31.816406 41.308594 31.757812 41.335938 31.703125 C 41.363281 31.648438 41.394531 31.59375 41.429688 31.539062 C 41.445312 31.511719 41.464844 31.488281 41.484375 31.464844 C 41.503906 31.4375 41.523438 31.414062 41.542969 31.386719 C 41.582031 31.339844 41.628906 31.300781 41.675781 31.261719 C 41.726562 31.226562 41.78125 31.203125 41.828125 31.179688 C 41.878906 31.160156 41.929688 31.152344 41.976562 31.140625 C 42.015625 31.132812 42.054688 31.128906 42.085938 31.128906 C 42.09375 31.128906 42.097656 31.128906 42.105469 31.128906 C 42.144531 31.128906 42.175781 31.128906 42.203125 31.132812 C 42.257812 31.140625 42.289062 31.148438 42.289062 31.148438 L 42.296875 31.179688 C 42.296875 31.179688 42.273438 31.203125 42.234375 31.238281 C 42.214844 31.253906 42.191406 31.273438 42.164062 31.292969 C 42.132812 31.3125 42.105469 31.339844 42.074219 31.363281 C 42.042969 31.390625 42.003906 31.414062 41.96875 31.4375 C 41.9375 31.46875 41.898438 31.496094 41.859375 31.519531 C 41.824219 31.546875 41.78125 31.570312 41.738281 31.59375 C 41.699219 31.625 41.652344 31.652344 41.621094 31.691406 C 41.585938 31.726562 41.550781 31.765625 41.523438 31.808594 C 41.492188 31.847656 41.46875 31.890625 41.441406 31.933594 C 41.417969 31.976562 41.398438 32.019531 41.382812 32.0625 C 41.363281 32.105469 41.351562 32.148438 41.339844 32.1875 C 41.316406 32.265625 41.308594 32.335938 41.300781 32.382812 C 41.292969 32.433594 41.292969 32.460938 41.292969 32.460938 L 41.261719 32.464844 "
        fill-opacity="1" fill-rule="nonzero"/>
</svg>